<?xml version="1.0" standalone="no"?>
<!DOCTYPE svg PUBLIC "-//W3C//DTD SVG 1.1//EN" "http://www.w3.org/Graphics/SVG/1.1/DTD/svg11.dtd" >
<svg xmlns="http://www.w3.org/2000/svg" xmlns:xlink="http://www.w3.org/1999/xlink" version="1.1">
<metadata>
Created by FontForge 20150318 at Sun Mar 29 13:45:16 2015
 By uniteet7
Copyright (c) 2003 by This Font is designed by Ralph Oliver du Carrois. All rights reserved.
</metadata>
<defs>
<font id="ColaborateLight" horiz-adv-x="488" >
  <font-face 
    font-family="ColaborateLight"
    font-weight="400"
    font-stretch="normal"
    units-per-em="1000"
    panose-1="2 0 5 3 4 0 0 2 0 4"
    ascent="800"
    descent="-200"
    x-height="457"
    cap-height="647"
    bbox="-124 -209 1004 835"
    underline-thickness="50"
    underline-position="-50"
    unicode-range="U+0020-FB02"
  />
<missing-glyph horiz-adv-x="1000" 
 />
    <glyph glyph-name=".notdef" horiz-adv-x="1000" 
 />
    <glyph glyph-name=".null" horiz-adv-x="0" 
 />
    <glyph glyph-name="nonmarkingreturn" horiz-adv-x="244" 
 />
    <glyph glyph-name="space" unicode=" " horiz-adv-x="244" 
 />
    <glyph glyph-name="exclam" unicode="!" horiz-adv-x="244" 
d="M82 0v84h80v-84h-80zM89 170v477h66v-477h-66z" />
    <glyph glyph-name="quotedbl" unicode="&#x22;" horiz-adv-x="360" 
d="M137 430h-51l-8 217h67zM274 430h-50l-8 217h66z" />
    <glyph glyph-name="numbersign" unicode="#" 
d="M197 396l-26 -153h110l27 153h-111zM369 396l-27 -153h94v-52h-103l-33 -191h-61l33 191h-111l-33 -191h-61l33 191h-87v52h97l26 153h-84v52h94l35 199h61l-35 -199h111l35 199h61l-35 -199h96v-52h-106z" />
    <glyph glyph-name="dollar" unicode="$" 
d="M363 166q0 48 -27.5 74t-65.5 43v-235q18 5 35 14t29.5 23t20.5 34t8 47zM212 597q-44 -8 -69 -34t-25 -74q0 -43 27.5 -65.5t66.5 -38.5v212zM437 168q0 -45 -13 -77t-35.5 -53.5t-53 -33.5t-65.5 -17v-85h-59v81q-44 0 -84 9t-82 20l25 64q38 -14 69 -24.5t72 -11.5
v267q-31 12 -61 25.5t-53.5 34t-38 50t-14.5 72.5q0 40 13 69.5t35.5 50t53 32t65.5 15.5v90h59v-88q32 -2 68.5 -8t71.5 -18l-25 -64q-25 11 -50.5 20.5t-64.5 11.5v-238q31 -12 61 -26.5t53.5 -36t38 -53.5t14.5 -78z" />
    <glyph glyph-name="percent" unicode="%" horiz-adv-x="738" 
d="M258 487q0 27 -2 51.5t-10 43t-23.5 29t-42.5 10.5q-26 0 -41 -12.5t-22.5 -32t-10 -43t-2.5 -46.5q0 -28 2 -53.5t10 -45t22.5 -31t40.5 -11.5q27 0 42.5 11.5t24 31t10.5 45t2 53.5zM635 167q0 27 -2 51.5t-10 43t-23.5 29t-42.5 10.5q-26 0 -41 -12.5t-22.5 -32
t-10 -43t-2.5 -46.5q0 -28 2 -53.5t10 -45t22.5 -31t40.5 -11.5q27 0 42.5 11.5t24 31t10.5 45t2 53.5zM307 487q0 -33 -4.5 -65t-18 -57t-38.5 -40.5t-67 -15.5q-41 0 -66 15.5t-38 40.5t-17 57t-4 65q0 32 5.5 62.5t19.5 54.5t38.5 39t62.5 15q41 0 66 -14t38.5 -38
t18 -55t4.5 -64zM220 0h-63l362 629h64zM684 167q0 -33 -4.5 -65t-18 -57t-38.5 -40.5t-67 -15.5q-41 0 -66 15.5t-38 40.5t-17 57t-4 65q0 32 5.5 62.5t19.5 54.5t38.5 39t62.5 15q41 0 66 -14t38.5 -38t18 -55t4.5 -64z" />
    <glyph glyph-name="ampersand" unicode="&#x26;" 
d="M317 505q0 23 -4.5 42.5t-15 33.5t-28.5 21.5t-46 7.5q-50 0 -69.5 -32t-19.5 -82q0 -21 9 -37.5t21.5 -30t26.5 -23.5t24 -18q18 7 36 17t33 24t24 32.5t9 44.5zM384 0l-14 54q-20 -29 -51.5 -48.5t-73.5 -19.5q-41 0 -77.5 11t-63.5 34t-42.5 58.5t-15.5 83.5
q0 57 26 106t93 81q-13 10 -30 21.5t-32.5 27.5t-26 37t-10.5 49q0 34 8 64.5t27 53t49.5 35.5t74.5 13q75 0 117 -37.5t42 -119.5q0 -60 -40.5 -97.5t-109.5 -66.5q-27 -12 -49 -25.5t-38 -33t-24.5 -45t-8.5 -61.5q0 -23 7 -47.5t23 -44.5t41.5 -33t63.5 -13q35 0 65.5 23
t50.5 55v122h-103v49h168v-146q0 -41 5 -80t7 -60h-58z" />
    <glyph glyph-name="quotesingle" unicode="'" horiz-adv-x="244" 
d="M147 430h-50l-8 217h66z" />
    <glyph glyph-name="parenleft" unicode="(" horiz-adv-x="275" 
d="M163 -128q-32 55 -52.5 100.5t-32.5 89.5t-16.5 90t-4.5 102q0 69 6 121t18.5 97t31.5 86.5t45 88.5h60q-27 -49 -44.5 -93t-28 -89.5t-14.5 -96.5t-4 -114q0 -52 3.5 -97.5t14 -90t29.5 -92t49 -102.5h-60z" />
    <glyph glyph-name="parenright" unicode=")" horiz-adv-x="275" 
d="M219 254q0 -56 -4.5 -102t-16.5 -90t-32.5 -89.5t-52.5 -100.5h-60q30 55 49 102.5t29.5 92t14 90t3.5 97.5q0 63 -4 114t-14.5 96.5t-28 89.5t-44.5 93h60q26 -47 45 -88.5t31.5 -86.5t18.5 -97t6 -121z" />
    <glyph glyph-name="asterisk" unicode="*" horiz-adv-x="390" 
d="M234 459l-1 -6l93 -119l-45 -32l-80 124h-7l-83 -124l-45 33l94 118l-3 6l-144 36l19 55l138 -52l6 5l-7 145h56l-8 -147l6 -4l137 52l17 -55z" />
    <glyph glyph-name="plus" unicode="+" 
d="M275 187v-187h-63v187h-176v55h176v182h63v-182h177v-55h-177z" />
    <glyph glyph-name="comma" unicode="," horiz-adv-x="244" 
d="M80 -103h-52l56 178h77z" />
    <glyph glyph-name="hyphen" unicode="-" horiz-adv-x="327" 
d="M29 214v58h269v-58h-269z" />
    <glyph glyph-name="period" unicode="." horiz-adv-x="244" 
d="M83 0v83h78v-83h-78z" />
    <glyph glyph-name="slash" unicode="/" horiz-adv-x="254" 
d="M51 -10h-62l214 668h61z" />
    <glyph glyph-name="zero" unicode="0" 
d="M375 308q0 52 -3 98.5t-16.5 81t-40 55t-72.5 20.5q-44 0 -70 -23.5t-39.5 -60t-17.5 -82t-4 -89.5q0 -53 3.5 -101.5t16.5 -85t39 -58.5t71 -22q48 0 75 23t40 60.5t15.5 85.5t2.5 98zM450 308q0 -61 -6.5 -119t-28 -103.5t-63 -73t-110.5 -27.5t-109.5 28t-61.5 73.5
t-27.5 103.5t-6.5 118q0 58 8.5 114t31 99.5t62.5 70.5t104 27q69 0 109.5 -26t62.5 -69t28.5 -99t6.5 -117z" />
    <glyph glyph-name="one" unicode="1" 
d="M252 -1v528l-115 -99l-25 59l144 120h69v-608h-73z" />
    <glyph glyph-name="two" unicode="2" 
d="M62 0l-24 61q23 21 55 49t66.5 59.5t68.5 65.5t61 68.5t43.5 68t16.5 64.5q0 70 -32.5 99t-92.5 29q-39 0 -71.5 -12.5t-75.5 -33.5l-25 63q55 22 94 30.5t80 8.5t77 -9.5t62.5 -31t42 -56t15.5 -83.5q0 -54 -32 -108t-77.5 -104t-95.5 -93.5t-86 -76.5h305v-58h-375z
" />
    <glyph glyph-name="three" unicode="3" 
d="M413 158q0 -50 -18.5 -83t-48.5 -53t-68.5 -28.5t-78.5 -8.5q-26 0 -46.5 1t-39.5 3.5t-37.5 7t-40.5 12.5l25 63q29 -11 60.5 -21t81.5 -10q27 0 51.5 6.5t43 20.5t30 36.5t11.5 54.5q0 42 -14.5 68t-40 40.5t-60.5 19.5t-76 5v54q38 0 70.5 4t56 16.5t36.5 35t13 58.5
q0 31 -8.5 51t-23.5 32t-35.5 16.5t-44.5 4.5q-36 0 -71 -13.5t-69 -30.5l-25 63q16 8 37 15t43.5 12t44.5 7.5t41 2.5q86 0 136 -38.5t50 -119.5q0 -35 -11 -60t-29.5 -42t-42.5 -27t-51 -13q26 -4 52.5 -14.5t48 -29.5t35 -48t13.5 -70z" />
    <glyph glyph-name="four" unicode="4" 
d="M298 520l-208 -296h208v296zM371 168v-168h-73v168h-242l-26 60l269 379h72v-383h96v-56h-96z" />
    <glyph glyph-name="five" unicode="5" 
d="M438 191q0 -49 -15.5 -87.5t-44 -64.5t-68.5 -40t-89 -14q-46 0 -85.5 4t-81.5 18l24 63q34 -14 71 -21.5t73 -7.5q74 0 108.5 41t34.5 111q0 69 -31.5 104t-84.5 35q-38 0 -69 -13t-56 -26l-55 22v292h344v-56h-271v-184q23 6 47 13.5t62 7.5q91 0 139 -51.5t48 -145.5z
" />
    <glyph glyph-name="six" unicode="6" 
d="M368 192q0 30 -5 57.5t-18 48.5t-35.5 33t-56.5 12q-30 0 -52.5 -10.5t-38 -26t-25.5 -33t-15 -30.5q0 -58 8.5 -97t25 -62t40.5 -33t56 -10q52 0 84 40t32 111zM443 192q0 -42 -14 -79.5t-39 -66t-60.5 -45t-78.5 -16.5q-65 0 -105 25.5t-62.5 67.5t-30.5 95.5t-8 109.5
q0 60 14 120t43 108.5t75 78.5t109 30q28 0 61.5 -4.5t64.5 -12.5l-24 -63q-25 10 -46.5 17t-50.5 7q-43 0 -76 -20t-55.5 -55.5t-34.5 -84.5t-12 -106q21 45 59.5 72.5t82.5 27.5q93 0 140.5 -56.5t47.5 -149.5z" />
    <glyph glyph-name="seven" unicode="7" 
d="M197 0h-81l243 550h-315v57h355l26 -55z" />
    <glyph glyph-name="eight" unicode="8" 
d="M378 149q0 33 -12.5 56.5t-32 40.5t-43.5 28t-46 18q-23 -7 -47 -17.5t-43.5 -27t-32 -40.5t-12.5 -58q0 -54 35.5 -81.5t96.5 -27.5q60 0 98.5 26t38.5 83zM364 462q0 56 -30 79.5t-88 23.5q-56 0 -86.5 -24t-30.5 -80q0 -24 11.5 -43.5t28.5 -33.5t36.5 -24t36.5 -15
q18 4 39.5 14t40 25t30.5 34.5t12 43.5zM451 148q0 -51 -19.5 -83t-49.5 -50t-67.5 -24t-73.5 -6q-35 0 -71.5 7t-66 25t-48 49.5t-18.5 81.5q0 67 40 109.5t106 62.5q-11 5 -31.5 14.5t-41.5 26t-36.5 41.5t-15.5 61q0 78 50 117.5t138 39.5q91 0 140.5 -35.5t49.5 -120.5
q0 -35 -15.5 -61t-37.5 -43.5t-44.5 -27.5t-35.5 -13q72 -23 110 -64t38 -107z" />
    <glyph glyph-name="nine" unicode="9" 
d="M365 362q0 58 -8.5 97t-25 62t-41 33t-55.5 10q-52 0 -84 -40t-32 -111q0 -30 5 -57.5t18 -48.5t35.5 -33t56.5 -12q30 0 52.5 10.5t38 26t25.5 32.5t15 31zM442 322q0 -60 -14 -120t-43 -108.5t-75 -78.5t-109 -30q-28 0 -61.5 4.5t-64.5 12.5l25 63q25 -10 46 -17
t50 -7q43 0 76 20t55.5 55.5t34.5 84.5t12 106q-21 -45 -59.5 -72.5t-82.5 -27.5q-93 0 -140 56.5t-47 149.5q0 42 14 79.5t39 66t60.5 45t77.5 16.5q65 0 105.5 -26t63 -68t30 -95.5t7.5 -108.5z" />
    <glyph glyph-name="colon" unicode=":" horiz-adv-x="244" 
d="M83 0v83h78v-83h-78zM83 369v83h78v-83h-78z" />
    <glyph glyph-name="semicolon" unicode=";" horiz-adv-x="244" 
d="M80 -103h-52l52 178h81zM80 369v83h78v-83h-78z" />
    <glyph glyph-name="less" unicode="&#x3c;" 
d="M35 189v79l417 169v-70l-350 -139l350 -138v-69z" />
    <glyph glyph-name="equal" unicode="=" 
d="M35 97v58h417v-58h-417zM35 270v58h417v-58h-417z" />
    <glyph glyph-name="greater" unicode="&#x3e;" 
d="M35 21v69l350 140l-350 137v70l417 -169v-79z" />
    <glyph glyph-name="question" unicode="?" horiz-adv-x="410" 
d="M144 0v84h80v-84h-80zM380 503q0 -30 -12 -52.5t-30 -41t-39 -35t-39 -34t-30 -38t-12 -46.5v-92h-69v97q0 34 12 58.5t29.5 43.5t38 34.5t38 31t29.5 33t12 41.5q0 53 -25.5 75t-81.5 22q-14 0 -31 -3t-35 -8t-35.5 -11t-30.5 -13l-18 62q32 11 73 20.5t77 9.5
q34 0 66.5 -6.5t57.5 -23.5t40 -47t15 -77z" />
    <glyph glyph-name="at" unicode="@" horiz-adv-x="841" 
d="M759 382q0 -69 -23.5 -117.5t-64 -79.5t-94.5 -45.5t-115 -14.5q-47 0 -86 12.5t-67 37.5t-44 61t-16 84q0 39 13 74t38 61t61 41.5t83 15.5q30 0 52.5 -5t33.5 -10v-193l35 5l20 -52l-114 -14v213q-5 2 -13 3.5t-16 1.5q-26 0 -49 -8.5t-40 -25.5t-27 -43t-10 -62
q0 -41 12.5 -69t33 -45.5t47 -25t55.5 -7.5q50 0 91.5 10.5t71.5 34.5t47 63.5t17 97.5q0 61 -20.5 104t-54 70t-77 39.5t-89.5 12.5q-56 0 -110 -15.5t-96.5 -49.5t-68.5 -89t-26 -133q0 -80 26 -134.5t68.5 -88t96.5 -48.5t109 -15q30 0 55 2t50 6t51 11t56 17l24 -55
q-62 -19 -122.5 -25.5t-116.5 -6.5q-82 0 -149 22.5t-115 65t-74 105.5t-26 144q0 83 28 146t77.5 106t117 64.5t145.5 21.5q55 0 110 -16t99 -50t72 -86t28 -124z" />
    <glyph glyph-name="A" unicode="A" horiz-adv-x="632" 
d="M322 555l-118 -307h226zM518 0l-69 193h-266l-73 -193h-77l263 647h60l244 -647h-82z" />
    <glyph glyph-name="B" unicode="B" horiz-adv-x="580" 
d="M446 184q0 38 -12.5 61.5t-33.5 37t-49.5 18t-60.5 4.5h-119v-248h130q32 0 58.5 5t46 18.5t30 38.5t10.5 65zM417 477q0 34 -8.5 55.5t-26 34.5t-44.5 18t-64 5h-103v-229h117q27 0 50.5 6.5t41 20.5t27.5 36t10 53zM522 184q0 -56 -17 -91.5t-46.5 -56t-68.5 -28.5
t-83 -8h-209v647h176q47 0 87 -7t69 -25.5t45.5 -51.5t16.5 -85q0 -51 -29 -87t-74 -52q60 -12 96.5 -50t36.5 -105z" />
    <glyph glyph-name="C" unicode="C" horiz-adv-x="543" 
d="M503 12q-43 -15 -82.5 -22t-87.5 -7q-74 0 -125.5 25.5t-83.5 70.5t-46.5 107.5t-14.5 136.5q0 67 13.5 128t45.5 107t85 73t132 27q83 0 157 -24l-25 -64q-32 14 -64 22.5t-68 8.5q-59 0 -97.5 -22t-61.5 -60t-32 -88.5t-9 -106.5q0 -60 9.5 -111.5t32 -90t59.5 -60.5
t93 -22q38 0 72 10t73 26z" />
    <glyph glyph-name="D" unicode="D" horiz-adv-x="628" 
d="M489 325q0 76 -13 126.5t-40.5 81.5t-72 44t-107.5 13h-85v-533h94q115 0 169.5 63.5t54.5 204.5zM565 326q0 -88 -17.5 -150t-55 -101t-96 -57t-140.5 -18h-158v647h158q84 0 143 -17.5t95.5 -55.5t53.5 -99.5t17 -148.5z" />
    <glyph glyph-name="E" unicode="E" horiz-adv-x="536" 
d="M98 0v647h358v-57h-285v-227h264v-57h-264v-249h294v-57h-367z" />
    <glyph glyph-name="F" unicode="F" horiz-adv-x="512" 
d="M171 589v-230h273v-56h-273v-303h-73v647h358v-58h-285z" />
    <glyph glyph-name="G" unicode="G" horiz-adv-x="596" 
d="M533 39q-25 -13 -48 -23t-46 -17.5t-48.5 -11.5t-55.5 -4q-81 0 -133.5 28.5t-83.5 76t-43 109t-12 127.5q0 75 15.5 136.5t49 105.5t87 68t129.5 24q34 0 74 -7.5t75 -16.5l-25 -64q-29 13 -59.5 22t-63.5 9q-106 0 -156 -67.5t-50 -209.5q0 -59 8.5 -110.5t31 -90
t61 -61t98.5 -22.5q36 0 68 12t61 28v182h-143v58h209v-281z" />
    <glyph glyph-name="H" unicode="H" horiz-adv-x="647" 
d="M476 0v305h-305v-305h-73v647h73v-284h305v284h73v-647h-73z" />
    <glyph glyph-name="I" unicode="I" horiz-adv-x="245" 
d="M86 0v647h73v-647h-73z" />
    <glyph glyph-name="J" unicode="J" horiz-adv-x="398" 
d="M300 204q0 -80 -25.5 -128t-64.5 -76t-85 -41t-87 -23l-20 64q34 7 70.5 14t67.5 26t51 54.5t20 99.5v453h73v-443z" />
    <glyph glyph-name="K" unicode="K" horiz-adv-x="589" 
d="M477 0l-306 312v-312h-73v647h73v-294l287 294h80l-298 -307l333 -340h-96z" />
    <glyph glyph-name="L" unicode="L" horiz-adv-x="475" 
d="M98 0v647h73v-587h296v-60h-369z" />
    <glyph glyph-name="M" unicode="M" horiz-adv-x="838" 
d="M669 0v568l-221 -568h-60l-223 568v-568h-67v647h112l211 -545l213 545h106v-647h-71z" />
    <glyph glyph-name="N" unicode="N" horiz-adv-x="674" 
d="M470 0l-305 561v-561h-67v647h104l303 -561v561h71v-647h-106z" />
    <glyph glyph-name="O" unicode="O" horiz-adv-x="680" 
d="M541 321q0 64 -9.5 116t-32.5 88.5t-61.5 56t-95.5 19.5q-58 0 -97 -19.5t-62.5 -56t-33.5 -88.5t-10 -116t10 -116t33.5 -88.5t62.5 -56.5t97 -20t96.5 20.5t61.5 57.5t32 89t9 114zM617 321q0 -72 -14 -134t-46.5 -107t-85 -71t-129.5 -26q-81 0 -134.5 25.5t-85.5 71
t-45.5 107.5t-13.5 134t14.5 133.5t47.5 106.5t86.5 71t131.5 26q79 0 131.5 -25.5t84 -70.5t45 -106.5t13.5 -134.5z" />
    <glyph glyph-name="P" unicode="P" horiz-adv-x="555" 
d="M426 463q0 39 -10 63.5t-29 39t-45 19.5t-59 5h-112v-260h117q33 0 58.5 6t43.5 21.5t27 41t9 64.5zM501 463q0 -101 -53.5 -145.5t-151.5 -44.5h-125v-273h-73v647h187q49 0 89 -9.5t68.5 -31.5t43.5 -57t15 -86z" />
    <glyph glyph-name="Q" unicode="Q" horiz-adv-x="680" 
d="M541 321q0 64 -9.5 116t-32.5 88.5t-61.5 56t-95.5 19.5q-58 0 -97 -19.5t-62.5 -56t-33.5 -88.5t-10 -116t10 -116t33.5 -88.5t62.5 -56.5t97 -20t96.5 20.5t61.5 57.5t32 89t9 114zM530 -114l-213 31l27 44l212 -18zM617 321q0 -72 -14 -134t-46.5 -107t-85 -71
t-129.5 -26q-81 0 -134.5 25.5t-85.5 71t-45.5 107.5t-13.5 134t14.5 133.5t47.5 106.5t86.5 71t131.5 26q79 0 131.5 -25.5t84 -70.5t45 -106.5t13.5 -134.5z" />
    <glyph glyph-name="R" unicode="R" horiz-adv-x="587" 
d="M431 473q0 57 -32.5 87t-93.5 30h-134v-244h135q35 0 59 9.5t38.5 27t21 40.5t6.5 50zM452 0l-213 289h-68v-289h-73v647h202q39 0 76 -8t66 -28t46.5 -53.5t17.5 -84.5q0 -35 -9 -67t-30 -57t-56 -40.5t-87 -17.5l218 -291h-90z" />
    <glyph glyph-name="S" unicode="S" horiz-adv-x="549" 
d="M478 168q0 -54 -19 -89.5t-51.5 -57t-75 -30t-90.5 -8.5q-42 0 -87 9t-87 20l25 64q36 -14 73 -25t77 -11q29 0 57.5 5.5t51.5 20t37 38.5t14 62q0 33 -14 55t-36.5 37.5t-52 27t-60.5 22.5q-32 12 -63 25.5t-55 34t-39 50t-15 71.5q0 46 19 78t50.5 52t72.5 29.5t86 9.5
q33 0 76.5 -6t83.5 -20l-25 -64q-28 12 -58.5 22.5t-77.5 10.5q-69 0 -110.5 -27.5t-41.5 -84.5q0 -24 10.5 -41.5t27.5 -30.5t40 -23t49 -19q36 -13 73 -27.5t67 -37t49 -56.5t19 -86z" />
    <glyph glyph-name="T" unicode="T" horiz-adv-x="508" 
d="M290 589v-589h-73v589h-191v58h456v-58h-192z" />
    <glyph glyph-name="U" unicode="U" horiz-adv-x="678" 
d="M580 237q0 -130 -57 -192t-177 -62q-132 0 -190 63t-58 193v408h73v-398q0 -62 10.5 -102.5t32.5 -64t54.5 -33t77.5 -9.5q42 0 72 11t50 35.5t29.5 64.5t9.5 98v398h73v-410z" />
    <glyph glyph-name="V" unicode="V" horiz-adv-x="604" 
d="M339 0h-64l-245 647h81l198 -548l188 548h78z" />
    <glyph glyph-name="W" unicode="W" horiz-adv-x="879" 
d="M671 0h-85l-146 514l-154 -514h-87l-163 647h77l138 -550l152 523h85l143 -524l142 551h70z" />
    <glyph glyph-name="X" unicode="X" horiz-adv-x="579" 
d="M452 0l-165 278l-176 -278h-79l216 334l-189 313h85l148 -249l156 249h79l-198 -307l212 -340h-89z" />
    <glyph glyph-name="Y" unicode="Y" horiz-adv-x="562" 
d="M321 291v-291h-73v287l-232 360h83l189 -292l181 292h77z" />
    <glyph glyph-name="Z" unicode="Z" horiz-adv-x="539" 
d="M124 58h362v-58h-418l-23 62l369 527h-332v58h388l24 -62z" />
    <glyph glyph-name="bracketleft" unicode="[" horiz-adv-x="272" 
d="M84 -127v803h142v-50h-79v-700h79v-53h-142z" />
    <glyph glyph-name="backslash" unicode="\" horiz-adv-x="254" 
d="M202 -10l-213 668h62l213 -668h-62z" />
    <glyph glyph-name="bracketright" unicode="]" horiz-adv-x="272" 
d="M50 -126v53h79v701h-79v49h142v-803h-142z" />
    <glyph glyph-name="asciicircum" unicode="^" 
d="M385 269l-142 299l-142 -299h-66l181 378h53l185 -378h-69z" />
    <glyph glyph-name="underscore" unicode="_" horiz-adv-x="500" 
d="M-1 -102v51h502v-51h-502z" />
    <glyph glyph-name="grave" unicode="`" horiz-adv-x="208" 
d="M137 530l-118 117h74l96 -117h-52z" />
    <glyph glyph-name="a" unicode="a" horiz-adv-x="479" 
d="M337 229h-31q-54 0 -90.5 -6.5t-58.5 -19.5t-31.5 -33t-9.5 -48q0 -38 27 -60t77 -22q40 0 70.5 16.5t46.5 44.5v128zM358 0q0 3 -3 10t-6 15.5t-5.5 16.5t-2.5 12q-17 -25 -50.5 -45t-77.5 -20q-35 0 -65 7.5t-52.5 23.5t-35.5 40.5t-13 59.5t11 64t38.5 50t75 32.5
t120.5 11.5h44v35q0 46 -19.5 75t-71.5 29q-48 0 -86 -12t-70 -28l-23 56q40 15 84 25t96 10q71 0 113.5 -36t42.5 -111v-181q0 -27 4.5 -62.5t9.5 -77.5h-58z" />
    <glyph glyph-name="b" unicode="b" horiz-adv-x="491" 
d="M376 229q0 51 -9 87t-25.5 58.5t-38.5 32.5t-47 10q-28 0 -49 -11t-35.5 -26.5t-24 -32.5t-14.5 -28v-209q40 -70 112 -70q67 0 99 49t32 140zM444 231q0 -49 -11 -93t-34.5 -77t-60 -52.5t-87.5 -19.5q-42 0 -72.5 20.5t-46.5 44.5l-14 -54h-57q2 21 4 37.5t3 32t1.5 32
t0.5 38.5v517h65v-268q8 13 21.5 27t30.5 25.5t37.5 19t43.5 7.5q48 0 81.5 -19t54.5 -51.5t30.5 -75.5t9.5 -91z" />
    <glyph glyph-name="c" unicode="c" horiz-adv-x="433" 
d="M395 19q-13 -6 -32.5 -11.5t-40.5 -9.5t-40.5 -6.5t-32.5 -2.5q-53 0 -91 17t-62.5 48.5t-36.5 74.5t-12 96q0 55 12 100t36.5 77t63.5 49t93 17q15 0 34.5 -3t39 -7.5t37.5 -9.5t30 -10l-23 -55q-26 13 -59.5 23.5t-59.5 10.5q-38 0 -64 -13.5t-42 -38.5t-23 -60.5
t-7 -79.5q0 -40 7 -74t23 -58.5t41.5 -38.5t63.5 -14q23 0 58 9.5t64 24.5z" />
    <glyph glyph-name="d" unicode="d" horiz-adv-x="491" 
d="M358 319q-6 12 -15 29t-23 32t-34 26t-47 11q-25 0 -47.5 -10.5t-39.5 -33t-27 -58.5t-10 -86q0 -91 30.5 -140t100.5 -49q72 0 112 70v209zM374 0l-15 54q-16 -24 -46.5 -44.5t-72.5 -20.5q-54 0 -91 19.5t-59.5 52.5t-32.5 77t-10 93q0 48 11.5 91t35 75.5t57.5 51.5
t79 19q23 0 42.5 -7t35.5 -18.5t28 -25t20 -26.5v266h65v-517q0 -22 0.5 -38.5t2 -32t3.5 -32t4 -37.5h-57z" />
    <glyph glyph-name="e" unicode="e" horiz-adv-x="481" 
d="M367 257q-2 82 -32.5 121t-95.5 39q-54 0 -86.5 -40.5t-36.5 -119.5h251zM117 206q1 -36 8.5 -67t23.5 -53t40.5 -34.5t60.5 -12.5q38 0 72.5 10t69.5 29l20 -54q-40 -19 -83.5 -27t-86.5 -8q-52 0 -89 19t-60.5 51t-34.5 74.5t-11 90.5q0 40 9 83t30.5 79t58.5 59t93 23
q57 0 94 -19t59.5 -53.5t31.5 -83t9 -106.5h-315z" />
    <glyph glyph-name="f" unicode="f" horiz-adv-x="279" 
d="M279 614q-62 -4 -96 -30.5t-34 -72.5v-54h104v-51h-104v-406h-65v406h-69v51h69v48q0 40 16.5 70t42.5 50t57.5 31.5t61.5 13.5z" />
    <glyph glyph-name="g" unicode="g" horiz-adv-x="496" 
d="M395 -68q0 15 -11.5 26t-37 19.5t-66.5 14.5t-100 12q-36 -8 -54.5 -31.5t-18.5 -43.5q0 -35 35.5 -56t110.5 -21q76 0 109 21t33 59zM363 300q0 56 -29 86.5t-87 30.5q-30 0 -52 -9.5t-36.5 -25.5t-21.5 -38t-7 -47q0 -53 29 -86.5t89 -33.5q32 0 54 11t35.5 28.5
t19.5 39.5t6 44zM463 -68q0 -34 -17 -58.5t-46 -40.5t-67 -23.5t-80 -7.5q-60 0 -101 9t-66 25.5t-36 39.5t-11 52q0 19 9 35t22.5 28t29 20.5t29.5 11.5q-26 11 -43.5 30t-17.5 47q0 25 13.5 42.5t30.5 31.5q-5 6 -13.5 16t-16.5 25.5t-14 36t-6 47.5q0 20 7.5 49t28 55.5
t56 45.5t91.5 19q26 0 44 -3.5t32 -8.5q28 2 66.5 5.5t74.5 5.5l-20 -50h-65q18 -14 36 -45t18 -71q0 -32 -10 -63.5t-32.5 -56t-57.5 -40t-84 -15.5q-10 0 -23.5 1.5t-27 4.5t-26 7t-19.5 8q-9 -12 -16.5 -20.5t-7.5 -22.5q0 -9 5 -16.5t19.5 -14t41 -11.5t70.5 -9
q63 -5 102 -15.5t60.5 -26t29.5 -35.5t8 -44z" />
    <glyph glyph-name="h" unicode="h" horiz-adv-x="489" 
d="M354 0v280q0 29 -3.5 54t-14 43.5t-30.5 29t-52 10.5q-24 0 -43.5 -10t-34.5 -24.5t-25.5 -31.5t-15.5 -31v-320h-65v657h65v-268q7 12 19 26t28.5 26t37 19.5t44.5 7.5q46 0 76 -14.5t47.5 -38.5t24.5 -55.5t7 -66.5v-293h-65z" />
    <glyph glyph-name="i" unicode="i" horiz-adv-x="208" 
d="M72 0v457h65v-457h-65zM68 569v78h72v-78h-72z" />
    <glyph glyph-name="j" unicode="j" horiz-adv-x="204" 
d="M132 6q0 -69 -34.5 -107t-102.5 -58l-21 56q52 11 72.5 33.5t20.5 66.5v460h65v-451zM63 569v78h73v-78h-73z" />
    <glyph glyph-name="k" unicode="k" horiz-adv-x="441" 
d="M347 0l-212 239v-239h-65v657h65v-388l194 188h73l-207 -198l231 -259h-79z" />
    <glyph glyph-name="l" unicode="l" horiz-adv-x="205" 
d="M70 0v657h65v-657h-65z" />
    <glyph glyph-name="m" unicode="m" horiz-adv-x="770" 
d="M635 0v290q0 25 -4 48.5t-14.5 40.5t-30.5 27.5t-51 10.5q-22 0 -41 -9.5t-34.5 -24t-27 -32.5t-17.5 -36v-315h-65v290q0 127 -99 127q-21 0 -39.5 -9.5t-33.5 -23.5t-26 -31t-17 -32v-321h-65v352q0 29 -3.5 54t-5.5 51h57l15 -68q7 10 19.5 24t29 26t36.5 20.5t43 8.5
q31 0 53 -7t38.5 -19t28 -28.5t20.5 -36.5q10 16 24 32t31.5 29t39 21.5t46.5 8.5q79 0 118.5 -42t39.5 -134v-292h-65z" />
    <glyph glyph-name="n" unicode="n" horiz-adv-x="489" 
d="M354 0v284q0 26 -3.5 50t-14 42.5t-30.5 29.5t-53 11q-23 0 -42 -9.5t-34 -23.5t-25.5 -31t-16.5 -33v-320h-65v360q0 29 -3.5 49.5t-5.5 47.5h57l14 -68q7 8 18 21.5t27 26t37 22t48 9.5q46 0 76 -13.5t48 -37.5t25.5 -57t7.5 -72v-288h-65z" />
    <glyph glyph-name="o" unicode="o" horiz-adv-x="497" 
d="M382 231q0 42 -6.5 76.5t-22 58.5t-41 37.5t-63.5 13.5q-72 0 -103 -51t-31 -135q0 -41 6.5 -76t22 -60.5t41 -40t64.5 -14.5t64.5 14t41 39.5t21.5 60.5t6 77zM450 231q0 -50 -10 -94t-33.5 -77t-62 -52t-95.5 -19t-95.5 19t-62.5 52t-34 77t-10 94q0 47 10 90t34 75.5
t62.5 52t95.5 19.5t96 -18.5t62 -50.5t33 -75.5t10 -92.5z" />
    <glyph glyph-name="p" unicode="p" horiz-adv-x="491" 
d="M376 228q0 89 -29 139t-99 50q-21 0 -39 -9t-32.5 -23t-25.5 -31t-17 -34v-211q9 -12 19 -24t24 -22t33 -16.5t46 -6.5q26 0 48 10.5t38 33t25 58.5t9 86zM444 226q0 -48 -11 -91t-33.5 -75.5t-57 -51.5t-82.5 -19q-45 0 -75.5 18.5t-49.5 44.5v-232h-65v500q0 38 -2 69
t-7 68h57l16 -69q8 13 21 27t29.5 26t36 19.5t40.5 7.5q52 0 87 -19.5t56.5 -52.5t30.5 -77t9 -93z" />
    <glyph glyph-name="q" unicode="q" horiz-adv-x="491" 
d="M357 320q-6 17 -16.5 34t-25 31t-32.5 23t-39 9q-66 0 -97.5 -50t-31.5 -139q0 -50 9 -86t25.5 -58.5t38.5 -33t48 -10.5q27 0 46 6.5t32.5 16.5t23.5 22t19 24v211zM431 457q-5 -37 -7.5 -68t-2.5 -69v-500h-65v232q-19 -26 -49.5 -44.5t-75.5 -18.5q-49 0 -83.5 19
t-57 51.5t-33 75.5t-10.5 91q0 49 10.5 93t33 77t58 52.5t85.5 19.5q21 0 40 -7.5t34.5 -19.5t28 -26t20.5 -27l17 69h57z" />
    <glyph glyph-name="r" unicode="r" horiz-adv-x="343" 
d="M307 391q-12 11 -32 18.5t-40 7.5q-21 0 -37 -14.5t-28.5 -34.5t-21 -40t-13.5 -31v-297h-65v355q0 34 -3.5 59.5t-5.5 42.5h57l14 -93q6 12 17.5 30t26.5 34.5t33 28t39 11.5q29 0 49.5 -7t32.5 -15z" />
    <glyph glyph-name="s" unicode="s" horiz-adv-x="415" 
d="M370 123q0 -35 -14 -60.5t-38 -42t-54.5 -24t-63.5 -7.5q-40 0 -82.5 7.5t-74.5 21.5l23 55q21 -9 37 -15t31 -10t31 -6t37 -2q49 0 74 21.5t25 60.5q0 19 -9 31.5t-23.5 22t-34 16l-40.5 13.5q-26 9 -52.5 19t-48 25t-35 36.5t-13.5 53.5q0 36 14.5 61t38 40t53.5 21.5
t62 6.5q17 0 32.5 -1.5t32 -5.5t35.5 -9.5t42 -14.5l-23 -55q-17 8 -30.5 14.5t-26.5 11t-27.5 7t-33.5 2.5q-43 0 -71.5 -17t-28.5 -58q0 -15 8 -25.5t21 -19t30.5 -14.5t37.5 -12q27 -8 55 -18t51.5 -26.5t38 -41t14.5 -62.5z" />
    <glyph glyph-name="t" unicode="t" horiz-adv-x="254" 
d="M251 -59q-84 17 -125.5 60.5t-41.5 109.5v295h-69v51h69v117h65v-117h105v-51h-105v-296q0 -53 30.5 -77t92.5 -33z" />
    <glyph glyph-name="u" unicode="u" horiz-adv-x="483" 
d="M365 0l-15 68q-7 -8 -17.5 -21.5t-25.5 -26t-35.5 -22t-47.5 -9.5q-44 0 -73.5 13.5t-47.5 37.5t-25.5 57t-7.5 72v288h65v-284q0 -26 3 -50t13.5 -42.5t30 -29.5t51.5 -11q22 0 40.5 9t33 23.5t24.5 31.5t16 33v320h65v-360q0 -29 4 -49.5t6 -47.5h-57z" />
    <glyph glyph-name="v" unicode="v" horiz-adv-x="489" 
d="M274 0h-57l-177 457h70l138 -372l135 372h67z" />
    <glyph glyph-name="w" unicode="w" horiz-adv-x="712" 
d="M518 0h-65l-98 322l-106 -322h-67l-144 457h69l114 -374l107 330h60l100 -328l121 372h65z" />
    <glyph glyph-name="x" unicode="x" horiz-adv-x="450" 
d="M346 0l-121 186l-129 -186h-71l164 231l-153 226h78l115 -175l119 175h69l-155 -219l163 -238h-79z" />
    <glyph glyph-name="y" unicode="y" horiz-adv-x="486" 
d="M255 -73q-10 -27 -21.5 -47.5t-27 -36.5t-37.5 -28.5t-53 -23.5l-21 57q42 11 61 28t27 37l40 106l-183 438h70l146 -363l124 363h66z" />
    <glyph glyph-name="z" unicode="z" horiz-adv-x="410" 
d="M111 51h250v-51h-301l-23 55l263 351h-239v51h289l23 -55z" />
    <glyph glyph-name="braceleft" unicode="{" horiz-adv-x="357" 
d="M303 -118q-69 2 -103.5 28t-50 65t-18.5 83.5t-8.5 83.5t-20.5 66t-54 30v55q28 1 43 16.5t22 40t9 55.5t6 63.5t12 64t27 56.5t51.5 40.5t84.5 17.5v-54q-50 0 -74.5 -20t-34.5 -51.5t-11.5 -70t-6 -75t-18.5 -67t-48 -45.5q35 -13 49 -42t19.5 -65.5t7 -75.5t11 -71
t33.5 -53t73 -21v-54z" />
    <glyph glyph-name="bar" unicode="|" horiz-adv-x="244" 
d="M92 -166v868h59v-868h-59z" />
    <glyph glyph-name="braceright" unicode="}" horiz-adv-x="357" 
d="M309 238q-39 -3 -54 -30t-20.5 -66t-8.5 -83.5t-18.5 -83.5t-50 -65t-103.5 -28v54q49 0 73 21t33.5 53t11 71t7 75.5t19.5 65.5t49 42q-34 15 -48 45.5t-18.5 67t-6 75t-11.5 70t-34.5 51.5t-74.5 20v54q52 -2 84.5 -17.5t51.5 -40.5t27 -56.5t12 -64t6 -63.5t9 -55.5
t21.5 -40t43.5 -16.5v-55z" />
    <glyph glyph-name="asciitilde" unicode="~" 
d="M462 256q0 -50 -35 -77.5t-84 -27.5q-30 0 -57 12t-51 27t-45.5 27t-40.5 12q-33 0 -50 -17t-17 -55l-56 28q0 51 32.5 78t83.5 27q30 0 56.5 -12t50.5 -26.5t45.5 -26.5t41.5 -12q33 0 51.5 18t18.5 53z" />
    <glyph glyph-name="nonbreakingspace" unicode="&#xa0;" horiz-adv-x="244" 
 />
    <glyph glyph-name="exclamdown" unicode="&#xa1;" horiz-adv-x="244" 
d="M90 0v477h65v-477h-65zM82 563v84h80v-84h-80z" />
    <glyph glyph-name="cent" unicode="&#xa2;" horiz-adv-x="423" 
d="M216 413q-56 -11 -78.5 -62t-22.5 -126q0 -35 5 -65t17 -54t31 -39.5t48 -21.5v368zM385 19q-22 -11 -53.5 -18t-58.5 -10v-90h-57v90q-88 11 -128.5 74t-40.5 160q0 102 40 166t129 75v92h57v-91q29 -3 59 -12t51 -17l-23 -55q-43 22 -87 30v-370q43 6 89 31z" />
    <glyph glyph-name="sterling" unicode="&#xa3;" 
d="M51 0v60h68v271h-72v55h72v26q0 79 24.5 127t63 74.5t84.5 38t90 19.5l20 -64q-36 -5 -73.5 -11.5t-67.5 -24.5t-49 -53.5t-19 -99.5v-32h174v-55h-174v-271h271v-60h-412z" />
    <glyph glyph-name="currency" unicode="&#xa4;" 
d="M492 567q-29 14 -64 24t-75 10q-44 0 -74.5 -14t-51 -38t-33 -57t-18.5 -72h277l-18 -58h-265q-1 -10 -1 -19v-19q0 -8 0.5 -16t0.5 -16h246l-17 -57h-224q5 -42 16.5 -77.5t31.5 -62t50.5 -41t73.5 -14.5q38 0 71 11.5t72 27.5v-73q-17 -5 -33 -9.5t-32.5 -7.5t-35 -4.5
t-42.5 -1.5q-60 0 -103.5 18.5t-73 51.5t-47 79.5t-24.5 102.5h-99l17 57h77q0 8 -0.5 15.5t-0.5 15.5v19.5t1 19.5h-94l17 58h83q8 51 26 94.5t48 75.5t74.5 50t104.5 18q39 0 79.5 -7t78.5 -20z" />
    <glyph glyph-name="yen" unicode="&#xa5;" 
d="M295 310h135v-55h-146v-71h146v-55h-146v-129h-73v129h-145v55h145v71h-145v55h132l-192 337h82l162 -290l156 290h75z" />
    <glyph glyph-name="brokenbar" unicode="&#xa6;" horiz-adv-x="244" 
d="M90 -78v234h63v-234h-63zM90 359v234h63v-234h-63z" />
    <glyph glyph-name="section" unicode="&#xa7;" horiz-adv-x="457" 
d="M328 316q0 24 -11.5 38t-30 23.5t-43 16.5t-49.5 15q-31 -5 -48 -23t-17 -53q0 -20 13 -32.5t33 -21t45.5 -15.5t49.5 -16q58 19 58 68zM398 317q0 -37 -19 -62.5t-48 -38.5q26 -17 37.5 -42.5t11.5 -55.5q0 -35 -14 -60.5t-37 -42t-53.5 -24t-63.5 -7.5q-80 0 -147 29
l24 58q18 -8 32 -14t28 -10.5t29.5 -7t35.5 -2.5q96 0 96 80q0 29 -18.5 45.5t-46.5 27t-60.5 19.5t-60.5 23.5t-46.5 37t-18.5 61.5q0 42 18.5 68.5t49.5 40.5q-23 14 -37.5 36t-14.5 53q0 36 14.5 61t38.5 40t54 21.5t62 6.5t65 -8.5t67 -22.5l-23 -57q-27 15 -50 25
t-58 10q-43 0 -71.5 -16t-28.5 -57q0 -24 18.5 -37.5t47 -23t61 -19t61 -25.5t47 -42t18.5 -68z" />
    <glyph glyph-name="dieresis" unicode="&#xa8;" horiz-adv-x="280" 
d="M-4 574v73h65v-73h-65zM147 574v73h65v-73h-65z" />
    <glyph glyph-name="copyright" unicode="&#xa9;" horiz-adv-x="720" 
d="M463 137q-27 -9 -52.5 -14t-54.5 -5q-46 0 -78 15.5t-52.5 42.5t-30 64.5t-9.5 81.5q0 40 8.5 76.5t29 64.5t53.5 44t82 16q26 0 51.5 -4t48.5 -12l-16 -43q-20 8 -40.5 14t-43.5 6q-37 0 -60.5 -13t-37.5 -35t-19.5 -51t-5.5 -62q0 -35 6 -65.5t19.5 -53t36.5 -35
t58 -12.5q24 0 45.5 6.5t46.5 16.5zM646 324q0 60 -22 113t-60.5 92.5t-91 62.5t-112.5 23q-61 0 -113 -23t-90.5 -62.5t-60.5 -92.5t-22 -113q0 -59 22.5 -112t61 -93t90.5 -63t112 -23t112 23t90.5 63t61 93t22.5 112zM695 324q0 -71 -26 -132t-71.5 -106t-106.5 -70.5
t-131 -25.5t-131 25.5t-106.5 70.5t-71.5 106t-26 132q0 70 26 131t71.5 106t106.5 71t131 26q71 0 132.5 -25.5t106.5 -70.5t70.5 -106t25.5 -132z" />
    <glyph glyph-name="ordfeminine" unicode="&#xaa;" 
d="M305 513h-19q-61 0 -85 -12t-24 -43q0 -40 58 -40q24 0 42 11t28 27v57zM317 391q0 3 -4.5 13.5t-5.5 15.5q-11 -14 -30.5 -24.5t-45.5 -10.5q-42 0 -71 17t-29 55q0 19 6.5 35.5t23 28.5t45 18.5t72.5 6.5h26v16q0 26 -11 39t-43 13q-29 0 -51.5 -6t-42.5 -15l-14 36
q24 8 50 13.5t58 5.5q42 0 70.5 -19t28.5 -61v-100q0 -15 3 -34.5t6 -42.5h-41z" />
    <glyph glyph-name="guillemotleft" unicode="&#xab;" horiz-adv-x="364" 
d="M93 272l96 -180h-63l-93 178l93 182h64zM236 272l96 -180h-63l-93 178l93 182h64z" />
    <glyph glyph-name="logicalnot" unicode="&#xac;" 
d="M399 108v178h-379v55h442v-233h-63z" />
    <glyph glyph-name="registered" unicode="&#xae;" horiz-adv-x="720" 
d="M443 413q0 33 -18 49.5t-59 16.5h-82v-139h83q44 0 60 21t16 52zM456 129l-135 173h-37v-173h-48v389h127q24 0 47.5 -5t42 -17.5t29.5 -32.5t11 -50q0 -21 -6 -40t-19.5 -34.5t-35.5 -25.5t-55 -11l138 -173h-59zM646 324q0 60 -22 113t-60.5 92.5t-91 62.5t-112.5 23
q-61 0 -113 -23t-90.5 -62.5t-60.5 -92.5t-22 -113q0 -59 22.5 -112t61 -93t90.5 -63t112 -23t112 23t90.5 63t61 93t22.5 112zM695 324q0 -71 -26 -132t-71.5 -106t-106.5 -70.5t-131 -25.5t-131 25.5t-106.5 70.5t-71.5 106t-26 132q0 70 26 131t71.5 106t106.5 71t131 26
q71 0 132.5 -25.5t106.5 -70.5t70.5 -106t25.5 -132z" />
    <glyph glyph-name="macron" unicode="&#xaf;" horiz-adv-x="208" 
d="M-12 566v59h232v-59h-232z" />
    <glyph glyph-name="degree" unicode="&#xb0;" horiz-adv-x="390" 
d="M287 468q0 42 -26 68.5t-66 26.5t-66 -26.5t-26 -68.5q0 -19 7.5 -35.5t20 -29t29 -19.5t34.5 -7t35 7t29.5 19.5t20.5 29t8 35.5zM342 468q0 -32 -12 -58t-32 -44.5t-47 -29t-57 -10.5t-56.5 10.5t-46.5 29t-31.5 44.5t-11.5 58q0 31 11.5 58t32 46.5t47 30.5t56.5 11
t56.5 -11t47 -30.5t32 -46.5t11.5 -58z" />
    <glyph glyph-name="plusminus" unicode="&#xb1;" 
d="M35 1v58h417v-58h-417zM275 247v-127h-63v127h-176v55h176v122h63v-122h177v-55h-177z" />
    <glyph glyph-name="twosuperior" unicode="&#xb2;" horiz-adv-x="332" 
d="M60 317l-14 36q21 18 53 42.5t62 52t51.5 56t21.5 53.5q0 38 -20 51t-56 13q-23 0 -44.5 -7t-44.5 -18l-14 40q33 13 56 17.5t48 4.5t47.5 -5.5t39.5 -18t27.5 -31.5t10.5 -46q0 -29 -19.5 -57.5t-47 -54.5t-58 -49t-51.5 -41h179v-38h-227z" />
    <glyph glyph-name="threesuperior" unicode="&#xb3;" horiz-adv-x="332" 
d="M283 404q0 -27 -12 -45.5t-31 -29.5t-43.5 -15.5t-48.5 -4.5q-31 0 -51.5 2.5t-46.5 10.5l14 40q17 -6 36.5 -11.5t49.5 -5.5q16 0 31 2.5t26.5 9.5t18.5 18.5t7 28.5q0 23 -9 37t-24.5 21.5t-36.5 10t-46 2.5v35q23 0 42.5 2t34 8.5t22.5 18t8 31.5q0 17 -5.5 27
t-15 15.5t-22 7t-26.5 1.5q-22 0 -43 -7.5t-41 -16.5l-14 40q20 9 48 15t51 6q52 0 85 -21t33 -66q0 -38 -24.5 -56t-56.5 -22q16 -2 32 -7.5t29 -16t21 -26.5t8 -39z" />
    <glyph glyph-name="acute" unicode="&#xb4;" horiz-adv-x="208" 
d="M71 530h-52l96 117h74z" />
    <glyph glyph-name="mu" unicode="&#xb5;" 
d="M367 0l-15 68q-7 -8 -17 -21.5t-25 -26t-35 -22t-47 -9.5q-59 0 -90 31v-200h-66v637h66v-284q0 -26 3 -50t13.5 -42.5t30 -29.5t51.5 -11q22 0 40.5 11t32.5 27t24 34.5t16 34.5v310h66v-360q0 -29 3.5 -49.5t5.5 -47.5h-57z" />
    <glyph glyph-name="mu" unicode="&#x3bc;" 
d="M367 0l-15 68q-7 -8 -17 -21.5t-25 -26t-35 -22t-47 -9.5q-59 0 -90 31v-200h-66v637h66v-284q0 -26 3 -50t13.5 -42.5t30 -29.5t51.5 -11q22 0 40.5 11t32.5 27t24 34.5t16 34.5v310h66v-360q0 -29 3.5 -49.5t5.5 -47.5h-57z" />
    <glyph glyph-name="paragraph" unicode="&#xb6;" horiz-adv-x="540" 
d="M421 -188v780h-101q-46 0 -77 -28t-31 -88q0 -23 9 -42t23 -33t31.5 -23.5t34.5 -13.5v-552h-63v499q-48 4 -80 20.5t-51.5 40t-27.5 51t-8 54.5q0 26 6.5 55.5t26.5 55t56.5 42.5t95.5 17h219v-835h-63z" />
    <glyph glyph-name="periodcentered" unicode="&#xb7;" horiz-adv-x="244" 
d="M80 240v87h84v-87h-84z" />
    <glyph glyph-name="cedilla" unicode="&#xb8;" horiz-adv-x="208" 
d="M196 -95q0 -42 -27 -65t-75 -23q-22 0 -45.5 2.5t-45.5 5.5l18 51q24 -3 38.5 -5t29.5 -2q18 0 33 8t15 26q0 8 -2.5 14t-11 10.5t-24 6.5t-42.5 2l21 79h56l-10 -45q37 0 54.5 -21t17.5 -44z" />
    <glyph glyph-name="onesuperior" unicode="&#xb9;" horiz-adv-x="332" 
d="M161 313v284l-67 -54l-15 38l86 66h46v-334h-50z" />
    <glyph glyph-name="ordmasculine" unicode="&#xba;" 
d="M321 527q0 47 -16.5 72t-59.5 25q-41 0 -59.5 -25t-18.5 -72q0 -45 17 -72t61 -27q42 0 59 26.5t17 72.5zM366 527q0 -27 -6 -51.5t-20.5 -42.5t-37.5 -28.5t-57 -10.5t-57.5 10.5t-38 28.5t-21 42.5t-6.5 51.5q0 26 6.5 49.5t21 41.5t38 29t57.5 11t57.5 -10.5t37.5 -28
t20 -41.5t6 -51z" />
    <glyph glyph-name="guillemotright" unicode="&#xbb;" horiz-adv-x="364" 
d="M95 92h-63l96 180l-97 180h64l93 -182zM238 92h-63l96 180l-97 180h64l93 -182z" />
    <glyph glyph-name="onequarter" unicode="&#xbc;" horiz-adv-x="738" 
d="M531 280l-119 -154h119v154zM147 313v284l-68 -54l-14 38l85 66h46v-334h-49zM175 0h-60l363 629h63zM580 89v-89h-49v89h-145l-16 37l162 208h48v-208h53v-37h-53z" />
    <glyph glyph-name="onehalf" unicode="&#xbd;" horiz-adv-x="738" 
d="M145 313v284l-67 -54l-15 38l86 66h46v-334h-50zM177 0h-64l362 629h64zM440 0l-15 39q21 18 53 42t62 51t52 55t22 53q0 38 -20 51t-56 13q-23 0 -45 -7t-45 -18l-14 41q33 13 56.5 17t48.5 4t47.5 -5.5t39.5 -18t27 -31.5t10 -46q0 -29 -19.5 -57.5t-47 -54.5
t-57.5 -49t-51 -41h178v-38h-226z" />
    <glyph glyph-name="threequarters" unicode="&#xbe;" horiz-adv-x="738" 
d="M554 280l-119 -154h119v154zM279 404q0 -27 -12 -45.5t-31 -29.5t-43 -15.5t-48 -4.5q-31 0 -52 2.5t-47 10.5l15 40q17 -6 36.5 -11.5t49.5 -5.5q16 0 30.5 2.5t26 9.5t18.5 18.5t7 28.5q0 23 -8.5 37t-24 21.5t-36.5 10t-46 2.5v35q23 0 42.5 2t33.5 8.5t22 18t8 31.5
q0 17 -5.5 27t-14.5 15.5t-21.5 7t-26.5 1.5q-22 0 -43 -7.5t-41 -16.5l-15 40q20 9 48.5 15t51.5 6q52 0 84.5 -21t32.5 -66q0 -38 -24 -56t-56 -22q16 -2 31.5 -7.5t28.5 -16t21 -26.5t8 -39zM205 0h-62l362 629h63zM603 89v-89h-49v89h-145l-16 37l162 208h48v-208h53
v-37h-53z" />
    <glyph glyph-name="questiondown" unicode="&#xbf;" horiz-adv-x="410" 
d="M380 20q-32 -11 -73 -20.5t-77 -9.5q-35 0 -67 6.5t-57 23.5t-40 47t-15 77q0 30 12 52.5t30 41t39 35t39 34t30 37.5t12 47v92h68v-97q0 -34 -11.5 -58.5t-29.5 -43.5t-38 -34.5t-38 -31t-29.5 -33t-11.5 -41.5q0 -53 25.5 -75t81.5 -22q14 0 31 3t35 8t35 11t31 13z
M207 563v84h79v-84h-79z" />
    <glyph glyph-name="Agrave" unicode="&#xc0;" horiz-adv-x="632" 
d="M363 684l-118 117h77l93 -117h-52zM322 555l-118 -307h226zM518 0l-69 193h-266l-73 -193h-77l263 647h60l244 -647h-82z" />
    <glyph glyph-name="Aacute" unicode="&#xc1;" horiz-adv-x="632" 
d="M291 682h-52l96 117h74zM322 555l-118 -307h226zM518 0l-69 193h-266l-73 -193h-77l263 647h60l244 -647h-82z" />
    <glyph glyph-name="Acircumflex" unicode="&#xc2;" horiz-adv-x="632" 
d="M386 699l-62 70l-64 -70h-54l89 110h58l87 -110h-54zM322 555l-118 -307h226zM518 0l-69 193h-266l-73 -193h-77l263 647h60l244 -647h-82z" />
    <glyph glyph-name="Atilde" unicode="&#xc3;" horiz-adv-x="632" 
d="M463 755q-10 -28 -31.5 -47t-54.5 -19q-14 0 -26.5 6t-24 13.5t-22.5 13.5t-23 6q-20 0 -30.5 -14.5t-15.5 -28.5l-44 19q17 38 36.5 52.5t54.5 14.5q13 0 25 -6t23.5 -12.5t22.5 -12.5t22 -6q19 0 29 13.5t15 27.5zM322 555l-118 -307h226zM518 0l-69 193h-266l-73 -193
h-77l263 647h60l244 -647h-82z" />
    <glyph glyph-name="Adieresis" unicode="&#xc4;" horiz-adv-x="632" 
d="M216 689v73h65v-73h-65zM367 689v73h65v-73h-65zM322 555l-118 -307h226zM518 0l-69 193h-266l-73 -193h-77l263 647h60l244 -647h-82z" />
    <glyph glyph-name="Aring" unicode="&#xc5;" horiz-adv-x="632" 
d="M384 754q0 20 -12.5 34.5t-35.5 14.5q-22 0 -35.5 -15.5t-13.5 -33.5q0 -17 13.5 -33t35.5 -16q24 0 36 15t12 34zM419 753q0 -35 -24 -58.5t-59 -23.5q-34 0 -58.5 24t-24.5 58q0 35 24 58.5t59 23.5t59 -23.5t24 -58.5zM322 555l-118 -307h226zM518 0l-69 193h-266
l-73 -193h-77l263 647h60l244 -647h-82z" />
    <glyph glyph-name="AE" unicode="&#xc6;" horiz-adv-x="900" 
d="M417 552l-166 -304h218zM512 0l-33 193h-257l-107 -193h-82l367 647h420v-57h-340l41 -227h278v-57h-267l45 -249h252v-57h-317z" />
    <glyph glyph-name="Ccedilla" unicode="&#xc7;" horiz-adv-x="543" 
d="M503 12q-39 -14 -76 -21t-79 -8l-2 -13q37 0 55 -21t18 -44q0 -42 -27.5 -65t-75.5 -23q-22 0 -45.5 2.5t-45.5 5.5l17 52q24 -3 39 -5.5t30 -2.5q18 0 33 8t15 26q0 8 -2.5 14t-11 10.5t-24 6.5t-42.5 2l13 50q-63 7 -106.5 34.5t-70.5 72t-39.5 103t-12.5 127.5
q0 67 13.5 128t45.5 107t85 73t132 27q83 0 157 -24l-25 -64q-32 14 -64 22.5t-68 8.5q-59 0 -97.5 -22t-61.5 -60t-32 -88.5t-9 -106.5q0 -60 9.5 -111.5t32 -90t59.5 -60.5t93 -22q38 0 72 10t73 26z" />
    <glyph glyph-name="Egrave" unicode="&#xc8;" horiz-adv-x="536" 
d="M297 685l-118 117h74l96 -117h-52zM98 0v647h358v-57h-285v-227h264v-57h-264v-249h294v-57h-367z" />
    <glyph glyph-name="Eacute" unicode="&#xc9;" horiz-adv-x="536" 
d="M259 677h-52l96 117h74zM98 0v647h358v-57h-285v-227h264v-57h-264v-249h294v-57h-367z" />
    <glyph glyph-name="Ecircumflex" unicode="&#xca;" horiz-adv-x="536" 
d="M342 689l-62 70l-64 -70h-54l89 110h58l87 -110h-54zM98 0v647h358v-57h-285v-227h264v-57h-264v-249h294v-57h-367z" />
    <glyph glyph-name="Edieresis" unicode="&#xcb;" horiz-adv-x="536" 
d="M173 689v73h65v-73h-65zM324 689v73h65v-73h-65zM98 0v647h358v-57h-285v-227h264v-57h-264v-249h294v-57h-367z" />
    <glyph glyph-name="Igrave" unicode="&#xcc;" horiz-adv-x="245" 
d="M148 692l-118 117h58l112 -117h-52zM88 0v647h73v-647h-73z" />
    <glyph glyph-name="Iacute" unicode="&#xcd;" horiz-adv-x="245" 
d="M93 692h-52l96 117h74zM86 0v647h73v-647h-73z" />
    <glyph glyph-name="Icircumflex" unicode="&#xce;" horiz-adv-x="245" 
d="M186 697l-62 70l-64 -70h-54l89 110h58l87 -110h-54zM86 0v647h73v-647h-73z" />
    <glyph glyph-name="Idieresis" unicode="&#xcf;" horiz-adv-x="245" 
d="M15 703v73h65v-73h-65zM166 703v73h65v-73h-65zM87 0v647h73v-647h-73z" />
    <glyph glyph-name="Eth" unicode="&#xd0;" horiz-adv-x="628" 
d="M489 325q0 76 -13 126.5t-40.5 81.5t-72 44t-107.5 13h-85v-197h150v-54h-150v-282h94q115 0 169.5 63.5t54.5 204.5zM565 326q0 -88 -17.5 -150t-55 -101t-96 -57t-140.5 -18h-158v339h-69v54h69v254h158q84 0 143 -17.5t95.5 -55.5t53.5 -99.5t17 -148.5z" />
    <glyph glyph-name="Ntilde" unicode="&#xd1;" horiz-adv-x="674" 
d="M462 753q-10 -28 -31.5 -47t-54.5 -19q-14 0 -26.5 6t-24 13.5t-22.5 13.5t-23 6q-20 0 -30.5 -14.5t-15.5 -28.5l-44 19q17 38 36.5 52.5t54.5 14.5q13 0 25 -6t23.5 -12.5t22.5 -12.5t22 -6q19 0 29 13.5t15 27.5zM470 0l-305 561v-561h-67v647h104l303 -561v561h71
v-647h-106z" />
    <glyph glyph-name="Ograve" unicode="&#xd2;" horiz-adv-x="680" 
d="M346 685l-118 117h74l96 -117h-52zM541 321q0 64 -9.5 116t-32.5 88.5t-61.5 56t-95.5 19.5q-58 0 -97 -19.5t-62.5 -56t-33.5 -88.5t-10 -116t10 -116t33.5 -88.5t62.5 -56.5t97 -20t96.5 20.5t61.5 57.5t32 89t9 114zM617 321q0 -72 -14 -134t-46.5 -107t-85 -71
t-129.5 -26q-81 0 -134.5 25.5t-85.5 71t-45.5 107.5t-13.5 134t14.5 133.5t47.5 106.5t86.5 71t131.5 26q79 0 131.5 -25.5t84 -70.5t45 -106.5t13.5 -134.5z" />
    <glyph glyph-name="Oacute" unicode="&#xd3;" horiz-adv-x="680" 
d="M333 682h-52l96 117h74zM541 321q0 64 -9.5 116t-32.5 88.5t-61.5 56t-95.5 19.5q-58 0 -97 -19.5t-62.5 -56t-33.5 -88.5t-10 -116t10 -116t33.5 -88.5t62.5 -56.5t97 -20t96.5 20.5t61.5 57.5t32 89t9 114zM617 321q0 -72 -14 -134t-46.5 -107t-85 -71t-129.5 -26
q-81 0 -134.5 25.5t-85.5 71t-45.5 107.5t-13.5 134t14.5 133.5t47.5 106.5t86.5 71t131.5 26q79 0 131.5 -25.5t84 -70.5t45 -106.5t13.5 -134.5z" />
    <glyph glyph-name="Ocircumflex" unicode="&#xd4;" horiz-adv-x="680" 
d="M404 689l-62 70l-64 -70h-54l89 110h58l87 -110h-54zM541 321q0 64 -9.5 116t-32.5 88.5t-61.5 56t-95.5 19.5q-58 0 -97 -19.5t-62.5 -56t-33.5 -88.5t-10 -116t10 -116t33.5 -88.5t62.5 -56.5t97 -20t96.5 20.5t61.5 57.5t32 89t9 114zM617 321q0 -72 -14 -134
t-46.5 -107t-85 -71t-129.5 -26q-81 0 -134.5 25.5t-85.5 71t-45.5 107.5t-13.5 134t14.5 133.5t47.5 106.5t86.5 71t131.5 26q79 0 131.5 -25.5t84 -70.5t45 -106.5t13.5 -134.5z" />
    <glyph glyph-name="Otilde" unicode="&#xd5;" horiz-adv-x="680" 
d="M477 753q-10 -28 -31.5 -47t-54.5 -19q-14 0 -26.5 6t-24 13.5t-22.5 13.5t-23 6q-20 0 -30.5 -14.5t-15.5 -28.5l-44 19q17 38 36.5 52.5t54.5 14.5q13 0 25 -6t23.5 -12.5t22.5 -12.5t22 -6q19 0 29 13.5t15 27.5zM541 321q0 64 -9.5 116t-32.5 88.5t-61.5 56
t-95.5 19.5q-58 0 -97 -19.5t-62.5 -56t-33.5 -88.5t-10 -116t10 -116t33.5 -88.5t62.5 -56.5t97 -20t96.5 20.5t61.5 57.5t32 89t9 114zM617 321q0 -72 -14 -134t-46.5 -107t-85 -71t-129.5 -26q-81 0 -134.5 25.5t-85.5 71t-45.5 107.5t-13.5 134t14.5 133.5t47.5 106.5
t86.5 71t131.5 26q79 0 131.5 -25.5t84 -70.5t45 -106.5t13.5 -134.5z" />
    <glyph glyph-name="Odieresis" unicode="&#xd6;" horiz-adv-x="680" 
d="M233 689v73h65v-73h-65zM384 689v73h65v-73h-65zM541 321q0 64 -9.5 116t-32.5 88.5t-61.5 56t-95.5 19.5q-58 0 -97 -19.5t-62.5 -56t-33.5 -88.5t-10 -116t10 -116t33.5 -88.5t62.5 -56.5t97 -20t96.5 20.5t61.5 57.5t32 89t9 114zM617 321q0 -72 -14 -134t-46.5 -107
t-85 -71t-129.5 -26q-81 0 -134.5 25.5t-85.5 71t-45.5 107.5t-13.5 134t14.5 133.5t47.5 106.5t86.5 71t131.5 26q79 0 131.5 -25.5t84 -70.5t45 -106.5t13.5 -134.5z" />
    <glyph glyph-name="multiply" unicode="&#xd7;" 
d="M396 30l-151 152l-152 -152l-44 44l152 152l-152 151l44 44l152 -152l151 152l44 -44l-152 -151l152 -152z" />
    <glyph glyph-name="Oslash" unicode="&#xd8;" horiz-adv-x="680" 
d="M541 321q0 48 -5.5 90t-19.5 75l-324 -381q23 -31 60 -48t90 -17q58 0 96.5 20.5t61.5 57.5t32 89t9 114zM482 547q-23 26 -57.5 40t-82.5 14q-58 0 -97 -19.5t-62.5 -56t-33.5 -88.5t-10 -116q0 -44 4.5 -83t15.5 -71zM569 548q26 -45 37 -102.5t11 -124.5
q0 -72 -14 -134t-46.5 -107t-85 -71t-129.5 -26q-67 0 -114.5 18.5t-79.5 51.5l-84 -99l-48 45l90 106q-23 44 -33 98.5t-10 117.5q0 72 14.5 133.5t47.5 106.5t86.5 71t131.5 26q61 0 105.5 -15.5t76.5 -44.5l79 92l48 -44z" />
    <glyph glyph-name="Ugrave" unicode="&#xd9;" horiz-adv-x="678" 
d="M353 685l-118 117h74l96 -117h-52zM580 237q0 -130 -57 -192t-177 -62q-132 0 -190 63t-58 193v408h73v-398q0 -62 10.5 -102.5t32.5 -64t54.5 -33t77.5 -9.5q42 0 72 11t50 35.5t29.5 64.5t9.5 98v398h73v-410z" />
    <glyph glyph-name="Uacute" unicode="&#xda;" horiz-adv-x="678" 
d="M322 679h-52l96 117h74zM580 237q0 -130 -57 -192t-177 -62q-132 0 -190 63t-58 193v408h73v-398q0 -62 10.5 -102.5t32.5 -64t54.5 -33t77.5 -9.5q42 0 72 11t50 35.5t29.5 64.5t9.5 98v398h73v-410z" />
    <glyph glyph-name="Ucircumflex" unicode="&#xdb;" horiz-adv-x="678" 
d="M400 689l-62 70l-64 -70h-54l89 110h58l87 -110h-54zM580 237q0 -130 -57 -192t-177 -62q-132 0 -190 63t-58 193v408h73v-398q0 -62 10.5 -102.5t32.5 -64t54.5 -33t77.5 -9.5q42 0 72 11t50 35.5t29.5 64.5t9.5 98v398h73v-410z" />
    <glyph glyph-name="Udieresis" unicode="&#xdc;" horiz-adv-x="678" 
d="M236 689v73h65v-73h-65zM387 689v73h65v-73h-65zM580 237q0 -130 -57 -192t-177 -62q-132 0 -190 63t-58 193v408h73v-398q0 -62 10.5 -102.5t32.5 -64t54.5 -33t77.5 -9.5q42 0 72 11t50 35.5t29.5 64.5t9.5 98v398h73v-410z" />
    <glyph glyph-name="Yacute" unicode="&#xdd;" horiz-adv-x="562" 
d="M258 692h-52l96 117h74zM321 291v-291h-73v287l-232 360h83l189 -292l181 292h77z" />
    <glyph glyph-name="Thorn" unicode="&#xde;" horiz-adv-x="555" 
d="M426 327q0 39 -10 63.5t-29 39t-45 19.5t-59 5h-112v-260h117q33 0 58.5 6t43.5 21.5t27 41t9 64.5zM501 327q0 -101 -53.5 -145.5t-151.5 -44.5h-125v-137h-73v647h73v-136h114q49 0 89 -9.5t68.5 -31.5t43.5 -57t15 -86z" />
    <glyph glyph-name="germandbls" unicode="&#xdf;" horiz-adv-x="494" 
d="M445 138q0 -60 -21.5 -98t-56 -59.5t-78 -29.5t-87.5 -8l21 56q33 0 61.5 7t49.5 23.5t33.5 43.5t12.5 67q0 43 -19.5 74t-47.5 52.5t-58 34t-51 18.5v53q12 7 31 20.5t37.5 31.5t32 41t13.5 51q0 25 -9 42t-22.5 27.5t-30 15.5t-31.5 5q-47 0 -68.5 -26t-21.5 -98v-482
h-65v471q0 95 35.5 140.5t119.5 45.5q31 0 60 -8.5t51 -26t35 -44.5t13 -65q0 -35 -16 -62t-37 -47t-41.5 -33.5t-29.5 -19.5q20 -8 51.5 -22t61 -38t51 -61t21.5 -92z" />
    <glyph glyph-name="agrave" unicode="&#xe0;" horiz-adv-x="479" 
d="M226 530l-118 117h74l96 -117h-52zM337 229h-31q-54 0 -90.5 -6.5t-58.5 -19.5t-31.5 -33t-9.5 -48q0 -38 27 -60t77 -22q40 0 70.5 16.5t46.5 44.5v128zM358 0q0 3 -3 10t-6 15.5t-5.5 16.5t-2.5 12q-17 -25 -50.5 -45t-77.5 -20q-35 0 -65 7.5t-52.5 23.5t-35.5 40.5
t-13 59.5t11 64t38.5 50t75 32.5t120.5 11.5h44v35q0 46 -19.5 75t-71.5 29q-48 0 -86 -12t-70 -28l-23 56q40 15 84 25t96 10q71 0 113.5 -36t42.5 -111v-181q0 -27 4.5 -62.5t9.5 -77.5h-58z" />
    <glyph glyph-name="aacute" unicode="&#xe1;" horiz-adv-x="479" 
d="M220 530h-52l96 117h74zM337 229h-31q-54 0 -90.5 -6.5t-58.5 -19.5t-31.5 -33t-9.5 -48q0 -38 27 -60t77 -22q40 0 70.5 16.5t46.5 44.5v128zM358 0q0 3 -3 10t-6 15.5t-5.5 16.5t-2.5 12q-17 -25 -50.5 -45t-77.5 -20q-35 0 -65 7.5t-52.5 23.5t-35.5 40.5t-13 59.5
t11 64t38.5 50t75 32.5t120.5 11.5h44v35q0 46 -19.5 75t-71.5 29q-48 0 -86 -12t-70 -28l-23 56q40 15 84 25t96 10q71 0 113.5 -36t42.5 -111v-181q0 -27 4.5 -62.5t9.5 -77.5h-58z" />
    <glyph glyph-name="acircumflex" unicode="&#xe2;" horiz-adv-x="479" 
d="M288 537l-62 70l-64 -70h-54l89 110h58l87 -110h-54zM337 229h-31q-54 0 -90.5 -6.5t-58.5 -19.5t-31.5 -33t-9.5 -48q0 -38 27 -60t77 -22q40 0 70.5 16.5t46.5 44.5v128zM358 0q0 3 -3 10t-6 15.5t-5.5 16.5t-2.5 12q-17 -25 -50.5 -45t-77.5 -20q-35 0 -65 7.5
t-52.5 23.5t-35.5 40.5t-13 59.5t11 64t38.5 50t75 32.5t120.5 11.5h44v35q0 46 -19.5 75t-71.5 29q-48 0 -86 -12t-70 -28l-23 56q40 15 84 25t96 10q71 0 113.5 -36t42.5 -111v-181q0 -27 4.5 -62.5t9.5 -77.5h-58z" />
    <glyph glyph-name="atilde" unicode="&#xe3;" horiz-adv-x="479" 
d="M361 605q-10 -28 -31.5 -47t-54.5 -19q-14 0 -26.5 6t-24 13.5t-22.5 13.5t-23 6q-20 0 -30.5 -14.5t-15.5 -28.5l-44 19q17 38 36.5 52.5t54.5 14.5q13 0 25 -6t23.5 -12.5t22.5 -12.5t22 -6q19 0 29 13.5t15 27.5zM337 229h-31q-54 0 -90.5 -6.5t-58.5 -19.5t-31.5 -33
t-9.5 -48q0 -38 27 -60t77 -22q40 0 70.5 16.5t46.5 44.5v128zM358 0q0 3 -3 10t-6 15.5t-5.5 16.5t-2.5 12q-17 -25 -50.5 -45t-77.5 -20q-35 0 -65 7.5t-52.5 23.5t-35.5 40.5t-13 59.5t11 64t38.5 50t75 32.5t120.5 11.5h44v35q0 46 -19.5 75t-71.5 29q-48 0 -86 -12
t-70 -28l-23 56q40 15 84 25t96 10q71 0 113.5 -36t42.5 -111v-181q0 -27 4.5 -62.5t9.5 -77.5h-58z" />
    <glyph glyph-name="adieresis" unicode="&#xe4;" horiz-adv-x="479" 
d="M128 543v77h65v-77h-65zM280 543v77h66v-77h-66zM337 229h-31q-54 0 -90.5 -6.5t-58.5 -19.5t-31.5 -33t-9.5 -48q0 -38 27 -60t77 -22q40 0 70.5 16.5t46.5 44.5v128zM358 0q0 3 -3 10t-6 15.5t-5.5 16.5t-2.5 12q-17 -25 -50.5 -45t-77.5 -20q-35 0 -65 7.5t-52.5 23.5
t-35.5 40.5t-13 59.5t11 64t38.5 50t75 32.5t120.5 11.5h44v35q0 46 -19.5 75t-71.5 29q-48 0 -86 -12t-70 -28l-23 56q40 15 84 25t96 10q71 0 113.5 -36t42.5 -111v-181q0 -27 4.5 -62.5t9.5 -77.5h-58z" />
    <glyph glyph-name="aring" unicode="&#xe5;" horiz-adv-x="479" 
d="M288 590q0 20 -12.5 34.5t-35.5 14.5q-22 0 -35.5 -15.5t-13.5 -33.5q0 -17 13.5 -33t35.5 -16q24 0 36 15t12 34zM323 589q0 -35 -24 -58.5t-59 -23.5q-34 0 -58.5 24t-24.5 58q0 35 24 58.5t59 23.5t59 -23.5t24 -58.5zM337 229h-31q-54 0 -90.5 -6.5t-58.5 -19.5
t-31.5 -33t-9.5 -48q0 -38 27 -60t77 -22q40 0 70.5 16.5t46.5 44.5v128zM358 0q0 3 -3 10t-6 15.5t-5.5 16.5t-2.5 12q-17 -25 -50.5 -45t-77.5 -20q-35 0 -65 7.5t-52.5 23.5t-35.5 40.5t-13 59.5t11 64t38.5 50t75 32.5t120.5 11.5h44v35q0 46 -19.5 75t-71.5 29
q-48 0 -86 -12t-70 -28l-23 56q40 15 84 25t96 10q71 0 113.5 -36t42.5 -111v-181q0 -27 4.5 -62.5t9.5 -77.5h-58z" />
    <glyph glyph-name="ae" unicode="&#xe6;" horiz-adv-x="768" 
d="M339 227h-33q-54 0 -90.5 -6t-58.5 -19t-31.5 -32.5t-9.5 -47.5q0 -38 27 -60t77 -22q40 0 71.5 22.5t47.5 50.5v114zM654 257q-2 82 -32.5 121t-95.5 39q-54 0 -86.5 -40.5t-36.5 -119.5h251zM404 206q1 -36 8.5 -67t23.5 -53t40.5 -34.5t60.5 -12.5q38 0 70 10t67 29
l21 -54q-40 -19 -81.5 -27t-84.5 -8q-61 0 -100.5 26.5t-56.5 63.5q-29 -42 -66 -66t-93 -24q-35 0 -65 7.5t-52.5 23.5t-35.5 40.5t-13 59.5t11 64t38.5 50t75 32.5t120.5 11.5h47v35q0 46 -20.5 75t-73.5 29q-48 0 -86 -12t-70 -28l-23 56q40 15 84 25t96 10
q50 0 85 -19.5t52 -57.5q20 33 54.5 55t87.5 22q58 0 95.5 -19t59.5 -53.5t30.5 -83t8.5 -106.5h-315z" />
    <glyph glyph-name="ccedilla" unicode="&#xe7;" horiz-adv-x="423" 
d="M376 14q-21 -8 -51 -15t-56 -9l-5 -20q18 0 31.5 -6t22.5 -16t13.5 -21.5t4.5 -21.5q0 -38 -26.5 -62.5t-74.5 -24.5q-22 0 -45.5 2t-45.5 5l8 50q24 -3 43.5 -5.5t34.5 -2.5q18 0 34 9t16 27q0 8 -3 14t-11.5 10.5t-24.5 7t-43 2.5l15 55q-83 12 -124.5 74.5
t-41.5 158.5q0 111 50.5 176t154.5 65q31 0 64.5 -8t55.5 -17l-13 -60q-25 17 -53.5 26t-54.5 9q-74 0 -105.5 -51.5t-31.5 -139.5q0 -40 8 -74t25 -58.5t42.5 -38t60.5 -13.5q52 0 112 36z" />
    <glyph glyph-name="egrave" unicode="&#xe8;" horiz-adv-x="481" 
d="M241 530l-118 117h74l96 -117h-52zM367 257q-2 82 -32.5 121t-95.5 39q-54 0 -86.5 -40.5t-36.5 -119.5h251zM117 206q1 -36 8.5 -67t23.5 -53t40.5 -34.5t60.5 -12.5q38 0 72.5 10t69.5 29l20 -54q-40 -19 -83.5 -27t-86.5 -8q-52 0 -89 19t-60.5 51t-34.5 74.5
t-11 90.5q0 40 9 83t30.5 79t58.5 59t93 23q57 0 94 -19t59.5 -53.5t31.5 -83t9 -106.5h-315z" />
    <glyph glyph-name="eacute" unicode="&#xe9;" horiz-adv-x="481" 
d="M220 530h-52l96 117h74zM367 257q-2 82 -32.5 121t-95.5 39q-54 0 -86.5 -40.5t-36.5 -119.5h251zM117 206q1 -36 8.5 -67t23.5 -53t40.5 -34.5t60.5 -12.5q38 0 72.5 10t69.5 29l20 -54q-40 -19 -83.5 -27t-86.5 -8q-52 0 -89 19t-60.5 51t-34.5 74.5t-11 90.5
q0 40 9 83t30.5 79t58.5 59t93 23q57 0 94 -19t59.5 -53.5t31.5 -83t9 -106.5h-315z" />
    <glyph glyph-name="ecircumflex" unicode="&#xea;" horiz-adv-x="481" 
d="M302 537l-62 70l-64 -70h-54l89 110h58l87 -110h-54zM367 257q-2 82 -32.5 121t-95.5 39q-54 0 -86.5 -40.5t-36.5 -119.5h251zM117 206q1 -36 8.5 -67t23.5 -53t40.5 -34.5t60.5 -12.5q38 0 72.5 10t69.5 29l20 -54q-40 -19 -83.5 -27t-86.5 -8q-52 0 -89 19t-60.5 51
t-34.5 74.5t-11 90.5q0 40 9 83t30.5 79t58.5 59t93 23q57 0 94 -19t59.5 -53.5t31.5 -83t9 -106.5h-315z" />
    <glyph glyph-name="edieresis" unicode="&#xeb;" horiz-adv-x="481" 
d="M138 554v73h65v-73h-65zM289 554v73h65v-73h-65zM367 257q-2 82 -32.5 121t-95.5 39q-54 0 -86.5 -40.5t-36.5 -119.5h251zM117 206q1 -36 8.5 -67t23.5 -53t40.5 -34.5t60.5 -12.5q38 0 72.5 10t69.5 29l20 -54q-40 -19 -83.5 -27t-86.5 -8q-52 0 -89 19t-60.5 51
t-34.5 74.5t-11 90.5q0 40 9 83t30.5 79t58.5 59t93 23q57 0 94 -19t59.5 -53.5t31.5 -83t9 -106.5h-315z" />
    <glyph glyph-name="igrave" unicode="&#xec;" horiz-adv-x="208" 
d="M72 0v457h65v-457h-65zM132 530l-118 117h74l96 -117h-52z" />
    <glyph glyph-name="iacute" unicode="&#xed;" horiz-adv-x="208" 
d="M73 0v457h65v-457h-65zM72 530h-52l96 117h74z" />
    <glyph glyph-name="icircumflex" unicode="&#xee;" horiz-adv-x="208" 
d="M71 0v457h65v-457h-65zM167 537l-62 70l-64 -70h-54l89 110h58l87 -110h-54z" />
    <glyph glyph-name="idieresis" unicode="&#xef;" horiz-adv-x="208" 
d="M73 0v457h65v-457h-65zM-4 568v73h65v-73h-65zM147 568v73h65v-73h-65z" />
    <glyph glyph-name="eth" unicode="&#xf0;" horiz-adv-x="487" 
d="M365 243q-5 13 -15 30.5t-25.5 33t-38 26t-52.5 10.5q-34 0 -56.5 -12t-35.5 -33t-18 -48.5t-5 -57.5q0 -71 32 -111t84 -40q31 0 55.5 10t41 33t25 62t8.5 97zM442 283q0 -56 -8 -109.5t-30.5 -95.5t-62.5 -67.5t-105 -25.5q-43 0 -78.5 16.5t-60.5 45t-38.5 66
t-13.5 79.5q0 93 47 149.5t140 56.5q44 0 82.5 -27.5t59.5 -72.5q0 91 -26 154.5t-84 100.5l-86 -58l-53 31l79 53q-20 8 -43.5 13.5t-49.5 9.5l-26 65q52 -6 96.5 -17.5t82.5 -29.5l76 52l52 -31l-76 -51q64 -47 95 -122t31 -185z" />
    <glyph glyph-name="ntilde" unicode="&#xf1;" horiz-adv-x="489" 
d="M384 605q-10 -28 -31.5 -47t-54.5 -19q-14 0 -26.5 6t-24 13.5t-22.5 13.5t-23 6q-20 0 -30.5 -14.5t-15.5 -28.5l-44 19q17 38 36.5 52.5t54.5 14.5q13 0 25 -6t23.5 -12.5t22.5 -12.5t22 -6q19 0 29 13.5t15 27.5zM354 0v284q0 26 -3.5 50t-14 42.5t-30.5 29.5t-53 11
q-23 0 -42 -9.5t-34 -23.5t-25.5 -31t-16.5 -33v-320h-65v360q0 29 -3.5 49.5t-5.5 47.5h57l14 -68q7 8 18 21.5t27 26t37 22t48 9.5q46 0 76 -13.5t48 -37.5t25.5 -57t7.5 -72v-288h-65z" />
    <glyph glyph-name="ograve" unicode="&#xf2;" horiz-adv-x="497" 
d="M263 530l-118 117h74l96 -117h-52zM382 231q0 42 -6.5 76.5t-22 58.5t-41 37.5t-63.5 13.5q-72 0 -103 -51t-31 -135q0 -41 6.5 -76t22 -60.5t41 -40t64.5 -14.5t64.5 14t41 39.5t21.5 60.5t6 77zM450 231q0 -50 -10 -94t-33.5 -77t-62 -52t-95.5 -19t-95.5 19t-62.5 52
t-34 77t-10 94q0 47 10 90t34 75.5t62.5 52t95.5 19.5t96 -18.5t62 -50.5t33 -75.5t10 -92.5z" />
    <glyph glyph-name="oacute" unicode="&#xf3;" horiz-adv-x="497" 
d="M227 530h-52l96 117h74zM382 231q0 42 -6.5 76.5t-22 58.5t-41 37.5t-63.5 13.5q-72 0 -103 -51t-31 -135q0 -41 6.5 -76t22 -60.5t41 -40t64.5 -14.5t64.5 14t41 39.5t21.5 60.5t6 77zM450 231q0 -50 -10 -94t-33.5 -77t-62 -52t-95.5 -19t-95.5 19t-62.5 52t-34 77
t-10 94q0 47 10 90t34 75.5t62.5 52t95.5 19.5t96 -18.5t62 -50.5t33 -75.5t10 -92.5z" />
    <glyph glyph-name="ocircumflex" unicode="&#xf4;" horiz-adv-x="497" 
d="M313 537l-62 70l-64 -70h-54l89 110h58l87 -110h-54zM382 231q0 42 -6.5 76.5t-22 58.5t-41 37.5t-63.5 13.5q-72 0 -103 -51t-31 -135q0 -41 6.5 -76t22 -60.5t41 -40t64.5 -14.5t64.5 14t41 39.5t21.5 60.5t6 77zM450 231q0 -50 -10 -94t-33.5 -77t-62 -52t-95.5 -19
t-95.5 19t-62.5 52t-34 77t-10 94q0 47 10 90t34 75.5t62.5 52t95.5 19.5t96 -18.5t62 -50.5t33 -75.5t10 -92.5z" />
    <glyph glyph-name="otilde" unicode="&#xf5;" horiz-adv-x="497" 
d="M374 605q-10 -28 -31.5 -47t-54.5 -19q-14 0 -26.5 6t-24 13.5t-22.5 13.5t-23 6q-20 0 -30.5 -14.5t-15.5 -28.5l-44 19q17 38 36.5 52.5t54.5 14.5q13 0 25 -6t23.5 -12.5t22.5 -12.5t22 -6q19 0 29 13.5t15 27.5zM382 231q0 42 -6.5 76.5t-22 58.5t-41 37.5
t-63.5 13.5q-72 0 -103 -51t-31 -135q0 -41 6.5 -76t22 -60.5t41 -40t64.5 -14.5t64.5 14t41 39.5t21.5 60.5t6 77zM450 231q0 -50 -10 -94t-33.5 -77t-62 -52t-95.5 -19t-95.5 19t-62.5 52t-34 77t-10 94q0 47 10 90t34 75.5t62.5 52t95.5 19.5t96 -18.5t62 -50.5t33 -75.5
t10 -92.5z" />
    <glyph glyph-name="odieresis" unicode="&#xf6;" horiz-adv-x="497" 
d="M138 554v73h65v-73h-65zM289 554v73h65v-73h-65zM382 231q0 42 -6.5 76.5t-22 58.5t-41 37.5t-63.5 13.5q-72 0 -103 -51t-31 -135q0 -41 6.5 -76t22 -60.5t41 -40t64.5 -14.5t64.5 14t41 39.5t21.5 60.5t6 77zM450 231q0 -50 -10 -94t-33.5 -77t-62 -52t-95.5 -19
t-95.5 19t-62.5 52t-34 77t-10 94q0 47 10 90t34 75.5t62.5 52t95.5 19.5t96 -18.5t62 -50.5t33 -75.5t10 -92.5z" />
    <glyph glyph-name="divide" unicode="&#xf7;" 
d="M205 16v83h78v-83h-78zM35 191v54h417v-54h-417zM205 349v83h78v-83h-78z" />
    <glyph glyph-name="oslash" unicode="&#xf8;" horiz-adv-x="497" 
d="M382 231q0 22 -1.5 42.5t-6.5 38.5l-216 -235q15 -17 37 -27t54 -10q39 0 64.5 14t41 39.5t21.5 60.5t6 77zM344 375q-15 20 -38 31t-57 11q-72 0 -103 -51t-31 -135q0 -25 2.5 -48.5t9.5 -43.5zM425 368q14 -29 19.5 -64t5.5 -73q0 -50 -10 -94t-33.5 -77t-62 -52
t-95.5 -19q-44 0 -76.5 11.5t-55.5 32.5l-57 -60l-47 45l63 66q-16 31 -22.5 68t-6.5 79q0 47 10 90t34 75.5t62.5 52t95.5 19.5q47 0 80 -13t56 -36l57 61l46 -44z" />
    <glyph glyph-name="ugrave" unicode="&#xf9;" horiz-adv-x="483" 
d="M365 0l-15 68q-7 -8 -17.5 -21.5t-25.5 -26t-35.5 -22t-47.5 -9.5q-44 0 -73.5 13.5t-47.5 37.5t-25.5 57t-7.5 72v288h65v-284q0 -26 3 -50t13.5 -42.5t30 -29.5t51.5 -11q22 0 40.5 9t33 23.5t24.5 31.5t16 33v320h65v-360q0 -29 4 -49.5t6 -47.5h-57zM254 530
l-118 117h74l96 -117h-52z" />
    <glyph glyph-name="uacute" unicode="&#xfa;" horiz-adv-x="483" 
d="M202 530h-52l96 117h74zM349 0l-15 68q-7 -8 -17.5 -21.5t-25.5 -26t-35.5 -22t-47.5 -9.5q-44 0 -73.5 13.5t-47.5 37.5t-25.5 57t-7.5 72v288h65v-284q0 -26 3 -50t13.5 -42.5t30 -29.5t51.5 -11q22 0 40.5 9t33 23.5t24.5 31.5t16 33v320h65v-360q0 -29 4 -49.5
t6 -47.5h-57z" />
    <glyph glyph-name="ucircumflex" unicode="&#xfb;" horiz-adv-x="483" 
d="M305 537l-62 70l-64 -70h-54l89 110h58l87 -110h-54zM365 0l-15 68q-7 -8 -17.5 -21.5t-25.5 -26t-35.5 -22t-47.5 -9.5q-44 0 -73.5 13.5t-47.5 37.5t-25.5 57t-7.5 72v288h65v-284q0 -26 3 -50t13.5 -42.5t30 -29.5t51.5 -11q22 0 40.5 9t33 23.5t24.5 31.5t16 33v320
h65v-360q0 -29 4 -49.5t6 -47.5h-57z" />
    <glyph glyph-name="udieresis" unicode="&#xfc;" horiz-adv-x="483" 
d="M133 554v73h65v-73h-65zM284 554v73h65v-73h-65zM365 0l-15 68q-7 -8 -17.5 -21.5t-25.5 -26t-35.5 -22t-47.5 -9.5q-44 0 -73.5 13.5t-47.5 37.5t-25.5 57t-7.5 72v288h65v-284q0 -26 3 -50t13.5 -42.5t30 -29.5t51.5 -11q22 0 40.5 9t33 23.5t24.5 31.5t16 33v320h65
v-360q0 -29 4 -49.5t6 -47.5h-57z" />
    <glyph glyph-name="yacute" unicode="&#xfd;" horiz-adv-x="486" 
d="M222 530h-52l96 117h74zM255 -73q-10 -27 -21.5 -47.5t-27 -36.5t-37.5 -28.5t-53 -23.5l-21 57q42 11 61 28t27 37l40 106l-183 438h70l146 -363l124 363h66z" />
    <glyph glyph-name="thorn" unicode="&#xfe;" horiz-adv-x="491" 
d="M376 229q0 51 -9 87t-25.5 58.5t-38.5 32.5t-47 10q-28 0 -49 -11t-35.5 -26.5t-24 -32.5t-14.5 -28v-209q40 -70 112 -70q67 0 99 49t32 140zM444 231q0 -49 -11 -93t-34.5 -77t-60 -52.5t-87.5 -19.5q-42 0 -72.5 20.5t-46.5 44.5l-14 -234h-57q1 14 2.5 39.5t2.5 56
t1.5 64t1 64.5t1 56.5t0.5 39.5v517h65v-268q8 13 21.5 27t30.5 25.5t37.5 19t43.5 7.5q48 0 81.5 -19t54.5 -51.5t30.5 -75.5t9.5 -91z" />
    <glyph glyph-name="ydieresis" unicode="&#xff;" horiz-adv-x="486" 
d="M143 561v73h65v-73h-65zM294 561v73h65v-73h-65zM255 -73q-10 -27 -21.5 -47.5t-27 -36.5t-37.5 -28.5t-53 -23.5l-21 57q42 11 61 28t27 37l40 106l-183 438h70l146 -363l124 363h66z" />
    <glyph glyph-name="dotlessi" unicode="&#x131;" horiz-adv-x="208" 
d="M72 0v457h65v-457h-65z" />
    <glyph glyph-name="Lslash" unicode="&#x141;" horiz-adv-x="475" 
d="M98 0v276l-70 -47l-34 52l104 69v297h73v-248l100 68l34 -53l-134 -89v-265h296v-60h-369z" />
    <glyph glyph-name="lslash" unicode="&#x142;" horiz-adv-x="245" 
d="M159 318v-318h-73v269l-60 -40l-33 52l93 63v303h73v-254l60 40l33 -52z" />
    <glyph glyph-name="OE" unicode="&#x152;" horiz-adv-x="937" 
d="M531 321q0 64 -8.5 116t-29.5 88.5t-57.5 56t-93.5 19.5q-58 0 -97 -19.5t-62.5 -56t-33.5 -88.5t-10 -116t10 -116t33.5 -88.5t62.5 -56.5t97 -20q57 0 93.5 20.5t58 57.5t29.5 89t8 114zM447 0q-23 -8 -48.5 -12.5t-56.5 -4.5q-81 0 -134.5 25.5t-85.5 71t-45.5 107.5
t-13.5 134t14.5 133.5t47.5 106.5t86.5 71t131.5 26q26 0 47.5 -3t41.5 -8h425v-57h-331q42 -38 59 -98.5t20 -128.5h231v-57h-230q-1 -73 -18 -140t-59 -109h337v-57h-419z" />
    <glyph glyph-name="oe" unicode="&#x153;" horiz-adv-x="813" 
d="M382 231q0 42 -6.5 76.5t-22 58.5t-41 37.5t-63.5 13.5q-72 0 -103 -51t-31 -135q0 -41 6.5 -76t22 -60.5t41 -40t64.5 -14.5t64.5 14t41 39.5t21.5 60.5t6 77zM699 257q-2 82 -32.5 121t-95.5 39q-54 0 -86.5 -40.5t-36.5 -119.5h251zM449 206q1 -36 8.5 -67t23.5 -53
t40.5 -34.5t60.5 -12.5q38 0 70.5 10t67.5 29l20 -54q-40 -19 -81.5 -27t-84.5 -8q-63 0 -100.5 28t-57.5 73q-20 -46 -59.5 -73.5t-107.5 -27.5q-57 0 -95.5 19t-62.5 52t-34 77t-10 94q0 47 10 90t34 75.5t62.5 52t95.5 19.5q69 0 108.5 -27.5t59.5 -73.5q19 42 55 71.5
t98 29.5q58 0 95.5 -19t59.5 -53.5t30.5 -83t8.5 -106.5h-315z" />
    <glyph glyph-name="Scaron" unicode="&#x160;" horiz-adv-x="549" 
d="M300 699h-58l-87 110h54l62 -71l64 71h54zM478 168q0 -54 -19 -89.5t-51.5 -57t-75 -30t-90.5 -8.5q-42 0 -87 9t-87 20l25 64q36 -14 73 -25t77 -11q29 0 57.5 5.5t51.5 20t37 38.5t14 62q0 33 -14 55t-36.5 37.5t-52 27t-60.5 22.5q-32 12 -63 25.5t-55 34t-39 50
t-15 71.5q0 46 19 78t50.5 52t72.5 29.5t86 9.5q33 0 76.5 -6t83.5 -20l-25 -64q-28 12 -58.5 22.5t-77.5 10.5q-69 0 -110.5 -27.5t-41.5 -84.5q0 -24 10.5 -41.5t27.5 -30.5t40 -23t49 -19q36 -13 73 -27.5t67 -37t49 -56.5t19 -86z" />
    <glyph glyph-name="scaron" unicode="&#x161;" horiz-adv-x="415" 
d="M231 537h-58l-87 110h54l62 -71l64 71h54zM370 123q0 -35 -14 -60.5t-38 -42t-54.5 -24t-63.5 -7.5q-40 0 -82.5 7.5t-74.5 21.5l23 55q21 -9 37 -15t31 -10t31 -6t37 -2q49 0 74 21.5t25 60.5q0 19 -9 31.5t-23.5 22t-34 16l-40.5 13.5q-26 9 -52.5 19t-48 25t-35 36.5
t-13.5 53.5q0 36 14.5 61t38 40t53.5 21.5t62 6.5q17 0 32.5 -1.5t32 -5.5t35.5 -9.5t42 -14.5l-23 -55q-17 8 -30.5 14.5t-26.5 11t-27.5 7t-33.5 2.5q-43 0 -71.5 -17t-28.5 -58q0 -15 8 -25.5t21 -19t30.5 -14.5t37.5 -12q27 -8 55 -18t51.5 -26.5t38 -41t14.5 -62.5z
" />
    <glyph glyph-name="Ydieresis" unicode="&#x178;" horiz-adv-x="562" 
d="M183 722v74h64v-74h-64zM332 722v74h64v-74h-64zM321 291v-291h-73v287l-232 360h83l189 -292l181 292h77z" />
    <glyph glyph-name="Zcaron" unicode="&#x17d;" horiz-adv-x="539" 
d="M306 692h-58l-87 110h54l62 -71l64 71h54zM124 58h362v-58h-418l-23 62l369 527h-332v58h388l24 -62z" />
    <glyph glyph-name="zcaron" unicode="&#x17e;" horiz-adv-x="410" 
d="M234 537h-58l-87 110h54l62 -71l64 71h54zM111 51h250v-51h-301l-23 55l263 351h-239v51h289l23 -55z" />
    <glyph glyph-name="florin" unicode="&#x192;" 
d="M394 608q-55 -8 -81 -30t-34 -64l-10 -57h84l-8 -48h-84l-102 -589h-61l102 589h-69l8 48h69l10 58q7 39 23.5 65t40 43t51 26.5t56.5 15.5z" />
    <glyph glyph-name="circumflex" unicode="&#x2c6;" horiz-adv-x="208" 
d="M167 537l-62 70l-64 -70h-54l89 110h58l87 -110h-54z" />
    <glyph glyph-name="caron" unicode="&#x2c7;" horiz-adv-x="208" 
d="M132 537h-58l-87 110h54l62 -71l64 71h54z" />
    <glyph glyph-name="breve" unicode="&#x2d8;" horiz-adv-x="208" 
d="M237 603q-7 -18 -20 -34.5t-30.5 -28.5t-37.5 -19.5t-42 -7.5q-26 0 -48.5 7.5t-39.5 20t-29 29t-18 33.5l43 25q3 -11 10.5 -23t19.5 -21.5t27.5 -15.5t34.5 -6q16 0 30 6t25 15.5t19 21.5t12 23z" />
    <glyph glyph-name="dotaccent" unicode="&#x2d9;" horiz-adv-x="208" 
d="M68 569v78h72v-78h-72z" />
    <glyph glyph-name="ring" unicode="&#x2da;" horiz-adv-x="208" 
d="M152 590q0 20 -12.5 34.5t-35.5 14.5q-22 0 -35.5 -15.5t-13.5 -33.5q0 -17 13.5 -33t35.5 -16q24 0 36 15t12 34zM187 589q0 -35 -24 -58.5t-59 -23.5q-34 0 -58.5 24t-24.5 58q0 35 24 58.5t59 23.5t59 -23.5t24 -58.5z" />
    <glyph glyph-name="ogonek" unicode="&#x2db;" horiz-adv-x="208" 
d="M201 -174q-19 -4 -42.5 -5.5t-37.5 -1.5q-48 0 -77.5 22t-29.5 66q0 25 10.5 43.5t25.5 31.5t30 21.5t24 12.5h95q-20 -9 -41.5 -20.5t-39 -25t-29 -28t-11.5 -29.5q0 -20 14.5 -28.5t32.5 -8.5q11 0 27.5 3l27.5 5z" />
    <glyph glyph-name="tilde" unicode="&#x2dc;" horiz-adv-x="208" 
d="M240 605q-10 -28 -31.5 -47t-54.5 -19q-14 0 -26.5 6t-24 13.5t-22.5 13.5t-23 6q-20 0 -30.5 -14.5t-15.5 -28.5l-44 19q17 38 36.5 52.5t54.5 14.5q13 0 25 -6t23.5 -12.5t22.5 -12.5t22 -6q19 0 29 13.5t15 27.5z" />
    <glyph glyph-name="hungarumlaut" unicode="&#x2dd;" horiz-adv-x="208" 
d="M30 529h-52l96 117h74zM159 529h-52l96 117h74z" />
    <glyph glyph-name="Delta" unicode="&#x394;" horiz-adv-x="717" 
d="M360 566l-215 -511h429zM54 0l279 647h51l279 -647h-609z" />
    <glyph glyph-name="Delta" unicode="&#x2206;" horiz-adv-x="717" 
d="M360 566l-215 -511h429zM54 0l279 647h51l279 -647h-609z" />
    <glyph glyph-name="Omega" unicode="&#x3a9;" horiz-adv-x="684" 
d="M618 361q0 -42 -9 -84.5t-28.5 -78.5t-50.5 -64t-75 -41v-41h144v-52h-208v127q42 7 70.5 27t46 51t25 70.5t7.5 85.5q0 63 -14.5 108.5t-40.5 75t-62 43t-80 13.5q-42 0 -78.5 -12t-63.5 -40.5t-43 -74.5t-16 -114q0 -47 8 -87t25.5 -71t46 -50.5t70.5 -24.5v-127h-208
v52h145v41q-43 13 -74 40.5t-50.5 63.5t-29 77.5t-9.5 83.5q0 143 71.5 221.5t204.5 78.5q134 0 205 -78.5t71 -218.5z" />
    <glyph glyph-name="Omega" unicode="&#x2126;" horiz-adv-x="684" 
d="M618 361q0 -42 -9 -84.5t-28.5 -78.5t-50.5 -64t-75 -41v-41h144v-52h-208v127q42 7 70.5 27t46 51t25 70.5t7.5 85.5q0 63 -14.5 108.5t-40.5 75t-62 43t-80 13.5q-42 0 -78.5 -12t-63.5 -40.5t-43 -74.5t-16 -114q0 -47 8 -87t25.5 -71t46 -50.5t70.5 -24.5v-127h-208
v52h145v41q-43 13 -74 40.5t-50.5 63.5t-29 77.5t-9.5 83.5q0 143 71.5 221.5t204.5 78.5q134 0 205 -78.5t71 -218.5z" />
    <glyph glyph-name="pi" unicode="&#x3c0;" 
d="M456 -51q-66 13 -101.5 47t-35.5 100v305h-155v-401h-60v401h-81v56h430v-56h-74v-301q0 -23 4 -40t14.5 -29t28.5 -19.5t46 -11.5z" />
    <glyph glyph-name="endash" unicode="&#x2013;" horiz-adv-x="500" 
d="M-1 210v58h502v-58h-502z" />
    <glyph glyph-name="emdash" unicode="&#x2014;" horiz-adv-x="1000" 
d="M-1 207v61h1002v-61h-1002z" />
    <glyph glyph-name="quoteleft" unicode="&#x2018;" horiz-adv-x="244" 
d="M109 460h-64l99 188h50z" />
    <glyph glyph-name="quoteright" unicode="&#x2019;" horiz-adv-x="244" 
d="M100 459h-52l84 188h65z" />
    <glyph glyph-name="quotesinglbase" unicode="&#x201a;" horiz-adv-x="244" 
d="M100 -88h-52l84 188h65z" />
    <glyph glyph-name="quotedblleft" unicode="&#x201c;" horiz-adv-x="364" 
d="M104 460h-64l99 188h50zM239 460h-64l98 188h51z" />
    <glyph glyph-name="quotedblright" unicode="&#x201d;" horiz-adv-x="364" 
d="M91 459h-51l85 188h64zM225 459h-51l85 188h65z" />
    <glyph glyph-name="quotedblbase" unicode="&#x201e;" horiz-adv-x="364" 
d="M91 -88h-51l85 188h64zM225 -88h-51l85 188h65z" />
    <glyph glyph-name="dagger" unicode="&#x2020;" 
d="M275 348v-528h-63v528h-175v55h175v217h63v-217h175v-55h-175z" />
    <glyph glyph-name="daggerdbl" unicode="&#x2021;" 
d="M275 166v-166h-63v166h-175v55h175v209h-175v55h175v162h63v-162h175v-55h-175v-209h175v-55h-175z" />
    <glyph glyph-name="bullet" unicode="&#x2022;" 
d="M371 324q0 -27 -10 -50t-27 -40.5t-40 -27.5t-50 -10t-50.5 10t-40.5 27t-27 40.5t-10 50.5t10 50t27.5 40t40.5 27t50 10t50 -10t40 -27t27 -40t10 -50z" />
    <glyph glyph-name="ellipsis" unicode="&#x2026;" horiz-adv-x="731" 
d="M83 0v83h78v-83h-78zM327 0v83h77v-83h-77zM570 0v83h78v-83h-78z" />
    <glyph glyph-name="perthousand" unicode="&#x2030;" horiz-adv-x="1058" 
d="M258 487q0 27 -2 51.5t-10 43t-23.5 29t-42.5 10.5q-26 0 -41 -12.5t-22.5 -32t-10 -43t-2.5 -46.5q0 -28 2 -53.5t10 -45t22.5 -31t40.5 -11.5q27 0 42.5 11.5t24 31t10.5 45t2 53.5zM638 167q0 27 -2 51.5t-10 43t-23.5 29t-42.5 10.5q-26 0 -41 -12.5t-22.5 -32
t-10 -43t-2.5 -46.5q0 -28 2 -53.5t10 -45t22.5 -31t40.5 -11.5q27 0 42.5 11.5t24 31t10.5 45t2 53.5zM955 167q0 27 -2 51.5t-10 43t-23.5 29t-42.5 10.5q-26 0 -41 -12.5t-22.5 -32t-10 -43t-2.5 -46.5q0 -28 2 -53.5t10 -45t22.5 -31t40.5 -11.5q27 0 42.5 11.5t24 31
t10.5 45t2 53.5zM307 487q0 -33 -4.5 -65t-18 -57t-38.5 -40.5t-67 -15.5q-41 0 -66 15.5t-38 40.5t-17 57t-4 65q0 32 5.5 62.5t19.5 54.5t38.5 39t62.5 15q41 0 66 -14t38.5 -38t18 -55t4.5 -64zM214 0h-63l362 629h64zM687 167q0 -33 -4.5 -65t-18 -57t-38.5 -40.5
t-67 -15.5q-41 0 -66 15.5t-38 40.5t-17 57t-4 65q0 32 5.5 62.5t19.5 54.5t38.5 39t62.5 15q41 0 66 -14t38.5 -38t18 -55t4.5 -64zM1004 167q0 -33 -4.5 -65t-18 -57t-38.5 -40.5t-67 -15.5q-41 0 -66 15.5t-38 40.5t-17 57t-4 65q0 32 5.5 62.5t19.5 54.5t38.5 39
t62.5 15q41 0 66 -14t38.5 -38t18 -55t4.5 -64z" />
    <glyph glyph-name="guilsinglleft" unicode="&#x2039;" horiz-adv-x="244" 
d="M102 272l96 -180h-63l-93 178l93 182h64z" />
    <glyph glyph-name="guilsinglright" unicode="&#x203a;" horiz-adv-x="244" 
d="M112 92h-63l96 180l-97 180h64l93 -182z" />
    <glyph glyph-name="fraction" unicode="&#x2044;" horiz-adv-x="177" 
d="M-62 0h-62l362 629h63z" />
    <glyph glyph-name="trademark" unicode="&#x2122;" horiz-adv-x="902" 
d="M242 611v-320h-47v320h-112v36h273v-36h-114zM751 292v308l-133 -308h-36l-133 308v-308h-43v355h69l127 -295l128 295h66v-355h-45z" />
    <glyph glyph-name="partialdiff" unicode="&#x2202;" 
d="M365 243q-5 13 -15 30.5t-25.5 33t-38 26t-52.5 10.5q-34 0 -56.5 -12t-35.5 -33t-18 -48.5t-5 -57.5q0 -71 32 -111t84 -40q31 0 55.5 10t41 33t25 62t8.5 97zM442 283q0 -56 -8 -109.5t-30.5 -95.5t-62.5 -67.5t-105 -25.5q-43 0 -78.5 16.5t-60.5 45t-38.5 66
t-13.5 79.5q0 93 47 149.5t140 56.5q44 0 82.5 -27.5t59.5 -72.5q0 57 -12 106t-34.5 84.5t-55.5 55.5t-76 20q-29 0 -50 -7t-46 -17l-25 63q31 8 64.5 12.5t61.5 4.5q63 0 109 -30t75 -78.5t43 -108.5t14 -120z" />
    <glyph glyph-name="product" unicode="&#x220f;" 
d="M404 -180v828h-321v-828h-63v882h447v-882h-63z" />
    <glyph glyph-name="summation" unicode="&#x2211;" 
d="M25 -180v45l279 398l-266 394v45h422v-55h-340l259 -384l-274 -388h366v-55h-446z" />
    <glyph glyph-name="minus" unicode="&#x2212;" 
d="M35 191v54h417v-54h-417z" />
    <glyph glyph-name="radical" unicode="&#x221a;" 
d="M297 -127h-86l-130 309h-62v55h110l120 -296l168 806h63z" />
    <glyph glyph-name="infinity" unicode="&#x221e;" horiz-adv-x="717" 
d="M327 227q-10 15 -23.5 32t-29 31.5t-32.5 24.5t-35 10q-43 0 -66 -30.5t-23 -69.5q0 -20 6.5 -37.5t18 -31.5t27.5 -22t35 -8q18 0 35 10.5t32.5 25.5t29 32.5t25.5 32.5zM599 225q0 19 -5.5 37t-16 32t-27 22.5t-37.5 8.5q-17 0 -34 -10t-33 -25t-30 -32t-25 -31
q11 -15 24 -33t28 -33t31.5 -25t36.5 -10q42 0 65 30t23 69zM664 225q0 -30 -10 -57t-29 -48t-48 -33t-66 -12q-25 0 -47 9.5t-41 24.5t-35 34t-29 38q-15 -19 -31.5 -38t-35.5 -34t-40.5 -24.5t-46.5 -9.5q-36 0 -64.5 12t-48 32.5t-29.5 48t-10 57.5t10.5 57.5t30 48.5
t48 33.5t65.5 12.5q24 0 45.5 -9t40.5 -23.5t35.5 -33t30.5 -37.5q15 19 31.5 37.5t35.5 33t40 23.5t47 9q38 0 66.5 -12t47 -32.5t28 -48.5t9.5 -59z" />
    <glyph glyph-name="integral" unicode="&#x222b;" 
d="M370 681q-55 -10 -75 -32t-20 -68v-584q0 -38 -12 -64.5t-31.5 -44.5t-45 -28.5t-52.5 -16.5l-17 54q53 10 74 32t21 68v584q0 39 12 66t31.5 45t45.5 28t53 15z" />
    <glyph glyph-name="approxequal" unicode="&#x2248;" 
d="M462 155q0 -50 -35 -77.5t-84 -27.5q-30 0 -57 12t-51 27t-45.5 27t-40.5 12q-33 0 -50 -17t-17 -55l-56 28q0 51 32.5 78t83.5 27q30 0 56.5 -12t50.5 -26.5t45.5 -26.5t41.5 -12q33 0 51.5 18t18.5 53zM462 335q0 -50 -35 -77.5t-84 -27.5q-30 0 -57 12.5t-51 27
t-45.5 27t-40.5 12.5q-33 0 -50 -17.5t-17 -55.5l-56 28q0 51 32.5 78.5t83.5 27.5q30 0 56.5 -12t50.5 -27t45.5 -27t41.5 -12q33 0 51.5 18t18.5 53z" />
    <glyph glyph-name="notequal" unicode="&#x2260;" 
d="M217 97l-73 -138l-54 29l58 109h-113v58h143l61 115h-204v58h235l78 147l53 -29l-62 -118h113v-58h-144l-61 -115h205v-58h-235z" />
    <glyph glyph-name="lessequal" unicode="&#x2264;" 
d="M35 1v58h417v-58h-417zM35 221v78l417 138v-70l-348 -108l348 -106v-69z" />
    <glyph glyph-name="greaterequal" unicode="&#x2265;" 
d="M35 1v58h417v-58h-417zM35 84v69l349 106l-349 108v70l417 -138v-78z" />
    <glyph glyph-name="lozenge" unicode="&#x25ca;" 
d="M243 610l-135 -297l135 -297l135 297zM274 -37h-64l-162 350l162 348h65l164 -348z" />
    <glyph glyph-name="fi" unicode="&#xfb01;" horiz-adv-x="448" 
d="M254 609q-55 -10 -80 -31t-25 -67v-54h84v-51h-84v-406h-65v406h-69v51h69v49q0 40 13 67.5t34 46t47.5 29t53.5 16.5zM311 0v457h66v-457h-66zM308 569v78h72v-78h-72z" />
    <glyph glyph-name="fl" unicode="&#xfb02;" horiz-adv-x="448" 
d="M254 609q-55 -10 -80 -31t-25 -67v-54h84v-51h-84v-406h-65v406h-69v51h69v49q0 40 13 67.5t34 46t47.5 29t53.5 16.5zM313 0v657h65v-657h-65z" />
    <glyph glyph-name="HT" horiz-adv-x="244" 
 />
    <glyph glyph-name="apple" horiz-adv-x="48" 
d="M375 335q0 28 -10 53t-27 44t-41.5 30t-52.5 11q-27 0 -51 -11.5t-42 -31t-28 -44t-10 -51.5t10 -52.5t27.5 -45.5t41.5 -32t52 -12t52 12t41.5 32t27.5 45.5t10 52.5zM413 116l-58 59q-22 -17 -51 -27t-60 -10t-59.5 9.5t-51.5 27.5l-58 -59l-48 48l58 58
q-17 23 -26.5 52t-9.5 61q0 63 36 111l-59 57l48 48l58 -58q23 17 51.5 26.5t58.5 9.5q32 0 61.5 -10t51.5 -25l57 58l48 -48l-58 -58q20 -26 28.5 -53.5t8.5 -58.5t-10 -61t-27 -51l59 -58z" />
    </font>
</defs>
</svg>
